<?xml version="1.0" encoding="utf-8"?>
<!-- Generator: Adobe Illustrator 25.4.1, SVG Export Plug-In . SVG Version: 6.00 Build 0)  -->
<svg version="1.1" id="Layer_1" xmlns="http://www.w3.org/2000/svg" xmlns:xlink="http://www.w3.org/1999/xlink" x="0px" y="0px"
	 viewBox="0 0 1000 500" style="enable-background:new 0 0 1000 500;" xml:space="preserve">
<style type="text/css">
	.st0{fill:#3F3F3F;}
	.st1{fill:#FEFEFE;}
	.st2{fill:#1D5C86;}
	.st3{fill:#E7E7D8;}
	.st4{fill:#D5D5C8;}
	.st5{fill:#BEBEAD;}
	.st6{fill:#BE1A42;}
	.st7{fill:#1E65A3;}
	.st8{fill:#D81D4B;}
	.st9{fill:#1E64A3;}
	.st10{fill:#F1B031;}
	.st11{fill:#A81939;}
	.st12{fill:#F1A10D;}
	.st13{fill:#FDD782;}
	.st14{fill:#000102;}
	.st15{fill:#000101;}
	.st16{fill:#010101;}
	.st17{fill:#1E64A2;}
	.st18{fill:#1E63A1;}
	.st19{fill:#1A547B;}
	.st20{fill:#5B6470;}
</style>
<g>
	<g>
		<path d="M45.2-86.4l-11.6-40.8H44c2.4,9.4,6.5,24.6,7.4,31.9h0.1c1.3-7.5,5.5-22.4,8.3-31.9h9.4c2.6,9,7.1,25.7,8.2,31.6h0.1
			c1.2-7.4,5.2-22.5,7.5-31.6h10L82.8-86.4H72c-2.6-9-6.8-24.6-8.1-30.4h-0.1c-1.2,6.9-5.1,20.4-8,30.4H45.2z"/>
		<path d="M107.3-99c0.2,3.6,2.9,6.4,7.4,6.4c3.6,0,5.3-1.1,6.4-2.9h9.5c-1.8,5.3-6.3,10-15.9,10c-12.3,0-16.7-8.1-16.7-15.8
			c0-8.4,5.7-15.8,16.6-15.8c11.7,0,16.4,8,16.4,15.8c0,0.8,0,1.3-0.1,2.3H107.3z M121.3-104.8c-0.2-2.3-1.4-5.7-6.8-5.7
			c-5,0-6.8,2.7-7.1,5.7H121.3z"/>
		<path d="M136.9-129.5h9.5v16.4c1.5-1.8,4.3-4,9.9-4c8.1,0,14.6,6.3,14.6,15.2c0,10.3-6.8,16.4-15.2,16.4c-5.7,0-8.3-2.1-9.7-4.2
			c0,0.8-0.1,2.7-0.1,3.4h-9.1c0.1-4.3,0.1-6.7,0.1-10V-129.5z M161.2-101.5c0-4.2-2.2-8.3-7.4-8.3c-5.2,0-7.6,3.4-7.6,8.4
			c0,4.8,2.5,8.4,7.5,8.4C158.7-93,161.2-96.8,161.2-101.5z"/>
		<path d="M194.8-127.2h18.5c13.8,0,21.3,8.9,21.3,19.7c0,13.1-9.6,21.1-21.5,21.1h-18.3V-127.2z M204.7-94h7
			c8,0,12.3-4.5,12.3-13.2c0-7.6-4-12.2-12.2-12.3h-7.2V-94z"/>
		<path d="M249-99c0.2,3.6,2.9,6.4,7.4,6.4c3.6,0,5.3-1.1,6.4-2.9h9.5c-1.8,5.3-6.3,10-15.9,10c-12.3,0-16.7-8.1-16.7-15.8
			c0-8.4,5.7-15.8,16.6-15.8c11.7,0,16.4,8,16.4,15.8c0,0.8,0,1.3-0.1,2.3H249z M263-104.8c-0.2-2.3-1.4-5.7-6.8-5.7
			c-5,0-6.8,2.7-7.1,5.7H263z"/>
		<path d="M284.9-116.3c4.1,11.6,6.7,18.1,7.7,21.8h0.1c1.1-3.7,3.2-9.5,7.6-21.8h9.6l-12.4,30h-10.6l-12.3-30H284.9z"/>
		<path d="M321.9-99c0.2,3.6,2.9,6.4,7.4,6.4c3.6,0,5.3-1.1,6.4-2.9h9.5c-1.8,5.3-6.3,10-15.9,10c-12.3,0-16.7-8.1-16.7-15.8
			c0-8.4,5.7-15.8,16.6-15.8c11.7,0,16.4,8,16.4,15.8c0,0.8,0,1.3-0.1,2.3H321.9z M335.9-104.8c-0.2-2.3-1.4-5.7-6.8-5.7
			c-5,0-6.8,2.7-7.1,5.7H335.9z"/>
		<path d="M351.5-86.4v-43.2h9.5v43.2H351.5z"/>
		<path d="M401.6-101.4c0,9.2-6.4,15.8-17.5,15.8c-11.2,0-16.9-7.5-16.9-15.8c0-8.2,5.9-15.8,17.3-15.8
			C396.2-117.1,401.6-108.8,401.6-101.4z M376.9-101.4c0,4.7,2.6,8.7,7.5,8.7c5.1,0,7.4-3.9,7.4-8.5c0-4.5-2.2-8.8-7.5-8.8
			C379.2-110,376.9-106,376.9-101.4z"/>
		<path d="M417.4-89.3v15.5h-9.5V-109c0-2.4,0-4.9-0.1-7.4h9.3c0.1,0.6,0.2,2.6,0.2,3.9c1.7-2.5,4.7-4.7,10.4-4.7
			c7.7,0,14.1,6.4,14.1,15.2c0,10.4-7.5,16.4-15.3,16.4C421.7-85.5,418.8-87.4,417.4-89.3z M432.2-101.4c0-4.4-2.5-8.4-7.4-8.4
			c-5.5,0-7.6,3.5-7.6,8.5c0,5.1,2.6,8.3,7.5,8.3C429.5-93,432.2-96.4,432.2-101.4z"/>
		<path d="M448.2-108.6c0-2.6,0-5.1-0.1-7.7h9.1c0.2,1.2,0.2,2.5,0.3,3.5c1.6-2.2,4.4-4.4,9.1-4.4c5.3,0,7.9,2.3,9,4.9
			c1.6-2.2,4.3-4.9,10.1-4.9c6.3,0,11.2,3.7,11.2,12.7v18.1h-9.3v-17.9c0-2.6-0.9-5.7-4.8-5.7c-3.4,0-5.5,2.1-5.5,7.1v16.5h-9.4
			v-17.9c0-3-1.1-5.7-4.9-5.7c-3.8,0-5.5,2.8-5.5,7.1v16.5h-9.4V-108.6z"/>
		<path d="M512.6-99c0.2,3.6,2.9,6.4,7.4,6.4c3.6,0,5.3-1.1,6.4-2.9h9.5c-1.8,5.3-6.3,10-15.9,10c-12.3,0-16.7-8.1-16.7-15.8
			c0-8.4,5.7-15.8,16.6-15.8c11.7,0,16.4,8,16.4,15.8c0,0.8,0,1.3-0.1,2.3H512.6z M526.6-104.8c-0.2-2.3-1.4-5.7-6.8-5.7
			c-5,0-6.8,2.7-7.1,5.7H526.6z"/>
		<path d="M542.2-108.8c0-2.5,0-5.4-0.1-7.6h9.3c0.1,0.8,0.2,2.7,0.3,3.9c1.4-2.1,4.1-4.7,9.9-4.7c7.4,0,11.7,4.6,11.7,12.3v18.5
			h-9.6v-17c0-3.4-1.3-6.4-5.6-6.4c-4.4,0-6.5,3.1-6.5,8.5v15h-9.5V-108.8z"/>
		<path d="M578.3-116.3h5.4v-8.8h9.5v8.8h6.9v6.9h-6.9v12.6c0,2.6,0.5,3.7,3.4,3.7c0.8,0,1.7,0,2.6-0.2v6.5c-1.6,0.5-3.8,0.7-6,0.7
			c-7.4,0-9.5-3.2-9.5-9v-14.3h-5.4V-116.3z"/>
	</g>
</g>
<g>
	<g>
		<path class="st0" d="M557.6,264.6h-24.3v14.3h26.8l-1.3,10h-36.2v-56.2h36.1v10h-25.4v12h24.3V264.6z"/>
		<path class="st0" d="M601.9,229.3v47.9c0,3.8,0,7.7,0.1,11.6h-10.2c-0.2-1.3-0.4-3.4-0.5-4.4c-1.8,3.3-5.1,5.4-10.8,5.4
			c-9.7,0-15.8-8.6-15.8-21.7c0-13,6.5-22.4,17.3-22.4c5.5,0,8.4,2.1,9.3,4v-20.4H601.9z M575.6,267.7c0,8.2,2.9,12.7,8.1,12.7
			c7.3,0,8.1-6.7,8.1-12.8c0-7.2-0.9-12.7-7.8-12.7C578.4,255,575.6,259.8,575.6,267.7z"/>
		<path class="st0" d="M607.5,229.3H618v10.4h-10.6V229.3z M607.5,246.6H618v42.2h-10.6V246.6z"/>
		<path class="st0" d="M623.8,246.6h5.9v-11.4h10.6v11.4h7.5v8.8h-7.5v20.8c0,3.2,0.9,4.4,4,4.4c0.6,0,1.6,0,2.4-0.1v8
			c-2.1,0.8-5,0.8-7.1,0.8c-7.4,0-9.9-4.4-9.9-11.8v-22.2h-5.9V246.6z"/>
		<path class="st0" d="M680.9,272.3c1.2,5.6,4.8,8.1,10.7,8.1c5.9,0,8.4-2.6,8.4-6.7c0-4.6-2.5-6.6-11.1-8.8
			c-13.8-3.6-17.3-9.1-17.3-16.7c0-9.8,6.6-16.4,18.7-16.4c13.5,0,18.9,8,19.6,16.2h-11.1c-0.5-3.5-2.3-7.2-8.8-7.2
			c-4.5,0-7.2,2-7.2,6c0,3.9,2.2,5.5,10.4,7.6c14.8,3.8,18,9.9,18,17.8c0,10.3-7,17.3-20.5,17.3c-12.9,0-19.7-7-20.9-17.3H680.9z"/>
		<path class="st0" d="M727.3,270.2c0,5.3,2.4,10.4,7.7,10.4c4.4,0,5.7-2,6.7-4.5h10.6c-1.4,5.2-5.5,13.6-17.5,13.6
			c-12.6,0-18-10.4-18-21.4c0-13.2,6.1-22.7,18.4-22.7c13.1,0,17.6,10.5,17.6,21c0,1.4,0,2.4-0.1,3.6H727.3z M742.1,263
			c-0.1-4.9-1.8-9-7-9c-5.1,0-7.1,3.9-7.5,9H742.1z"/>
		<path class="st0" d="M792.9,275.2c-1.3,7-5.8,14.6-17.2,14.6c-11.9,0-18-9.1-18-21.8c0-12.5,6.9-22.4,18.5-22.4
			c12.9,0,16.4,10.2,16.7,15h-10.3c-0.7-3.4-2.4-5.8-6.5-5.8c-4.8,0-7.6,4.7-7.6,12.9c0,9,2.9,13.1,7.5,13.1c3.6,0,5.6-2.4,6.5-5.5
			H792.9z"/>
		<path class="st0" d="M795.9,246.6h5.9v-11.4h10.6v11.4h7.5v8.8h-7.5v20.8c0,3.2,0.9,4.4,4,4.4c0.6,0,1.6,0,2.4-0.1v8
			c-2.1,0.8-5,0.8-7.1,0.8c-7.4,0-9.9-4.4-9.9-11.8v-22.2h-5.9V246.6z"/>
		<path class="st0" d="M826.4,229.3H837v10.4h-10.6V229.3z M826.4,246.6H837v42.2h-10.6V246.6z"/>
		<path class="st0" d="M882,267.6c0,12.8-6.9,22.1-19,22.1c-11.8,0-18.7-9.3-18.7-21.9c0-13,7.1-22.2,19.2-22.2
			C874.7,245.6,882,254.4,882,267.6z M854.9,267.7c0,8.1,3.2,12.9,8.3,12.9c5.2,0,8-4.8,8-12.9c0-8.8-2.9-13-8.2-13
			C858.1,254.8,854.9,258.8,854.9,267.7z"/>
		<path class="st0" d="M889.3,257.2c0-3.6,0-7.5-0.1-10.6h10.2c0.2,1.1,0.4,4,0.4,5.4c1.3-2.6,4.4-6.4,11.1-6.4
			c7.7,0,12.6,5.7,12.6,16.3v26.8H913v-25.5c0-4.7-1.4-8.2-6.1-8.2c-4.5,0-7.1,2.8-7.1,10.2v23.5h-10.6V257.2z"/>
		<path class="st0" d="M940.7,276.1c0.8,3.4,3.3,5.2,7.2,5.2c3.9,0,5.3-1.5,5.3-4.1c0-2.7-1.6-3.8-7.1-5.3
			c-12.4-3.4-14.5-7.6-14.5-13.6c0-6.2,4-12.8,15.5-12.8c11.6,0,15.5,7,15.8,12.7h-10c-0.3-1.6-1.3-4.5-6.2-4.5
			c-3.5,0-4.6,1.7-4.6,3.6c0,2.1,1.2,3.1,7.4,4.7c12.7,3.3,14.5,8.1,14.5,14.3c0,7-4.8,13.3-16.4,13.3c-11.6,0-16.4-6.2-17.2-13.7
			H940.7z"/>
	</g>
</g>
<g>
	<g>
		<path class="st1" d="M499.5,249.3c0,81.4,0,162.8,0.1,244.3c0,3.2-0.5,4-3.9,4c-163.2-0.1-326.4-0.1-489.5,0c-3.7,0-4.1-1-4.1-4.3
			c0.1-163,0.1-326,0-489C2,0.9,2.5,0,6.2,0c163,0.1,326,0.1,489,0c3.8,0,4.4,1,4.4,4.5C499.5,86.1,499.5,167.7,499.5,249.3z"/>
		<path d="M392.7,84.6c1.9-0.9,4-1.1,6.1-1.1c18.4,0,36.8,0.3,55.3-0.1c12.1-0.2,23.4,10,23.3,23.6c-0.4,79.2-0.2,158.3-0.2,237.5
			c0,15.7-8.8,24.4-24.7,24.5c-24.4,0-48.8,0.1-73.2-0.1c-3.6,0-4.7,0.8-4.6,4.5c0.2,19.5,0.1,39.1,0,58.6
			c0,16.1-8.7,24.7-24.9,24.7c-100.5,0-201,0-301.5,0c-16.2,0-24.9-8.7-24.9-24.7c0-78.8,0.2-157.7-0.2-236.5
			c-0.1-14.1,10.7-24.6,24.5-24.3c24.5,0.5,49.1,0.1,73.7,0.2c3.6,0,4.6-0.8,4.6-4.5c-0.3-19.7-0.4-39.4-0.4-59.1
			c0-12.7,6.3-21.1,17.7-23.8c1.4-0.3,2.9-0.5,4.3-0.5c34.3,0,68.5,0,102.8,0c0.6,0,1.3,0.1,1.9,0.2c4.7,1.7,6.6,4,6.2,7.8
			c-0.4,4.3-3.3,7.2-7.9,7.8c-2.2,0.3-4.5,0.2-6.8,0.2c-29.5,0-59,0-88.4,0c-1.8,0-3.5-0.1-5.3,0.1c-5.6,0.4-7.7,2.5-7.9,8.2
			c-0.1,1.6,0,3.2-0.1,4.8c0.2,2.6,0.2,5.2,0.1,7.7c-0.2,4,1.6,5.4,5.5,5.3c7.9-0.1,15.8,0,23.6,0c9.7,0,19.3,0,29,0
			c2.1,0,4.2,0,6.3,0.4c4.5,0.9,7.3,3.4,8,7.3c0.7,4-0.7,6.7-5.1,9.3c-2.5,0.8-5.1,0.6-7.7,0.6c-17.6,0-35.1,0-52.7,0
			c-6.5,0-6.7,0.2-6.7,6.9c-0.1,11.8,0.1,23.5-0.1,35.3c0.3,17.8,0.1,35.5,0.1,53.3c0,33.9,0,67.8,0,101.7c0,2.1,0,4.2,0.2,6.3
			c0.3,3.4,2.2,5.2,5.6,5.5c2.4,0.2,4.8,0.2,7.3,0.2c85.8,0,171.5,0,257.3,0c2.1,0,4.2-0.1,6.3,0.1c10.7-0.3,21.3,0,32-0.1
			c8.5-0.1,10.2-1.6,10.2-10.3c0.1-39.6,0-79.1,0-118.7c0-24.4,0-48.8,0-73.2c0-6.8-0.2-7.1-7.1-7.1c-29.4,0-58.8,0-88.2,0
			c-2.9,0-5.8,0.2-8.7-0.6c-4.2-1.7-5.8-5-5.1-9.3c0.6-3.9,3.5-6.4,8-7.3c1.1-0.2,2.2-0.3,3.4-0.3c27.5,0,54.9-0.2,82.4,0.1
			c3.5-0.2,7.1-0.1,10.6,0c3.1,0.1,4.9-1,4.8-4.4c-0.1-4.8,0.2-9.7-0.1-14.5c-0.3-4.4-2.2-6.3-6.5-7c-1.9-0.3-3.9-0.2-5.8-0.2
			c-15.9,0-31.9,0-47.8,0c-2.3,0-4.5,0.1-6.7-0.6c-3.5-1.1-5.3-3.6-5.7-7.1C388.1,88.4,389.1,85.7,392.7,84.6z"/>
		<path d="M287.3,84.4c11.6-10.2,22-21.7,33.1-32.5c2.2-2.1,4.4-4.3,6.9-6c8-5.7,15.9-5.8,23.5,0.4c8.4,6.8,15.8,14.7,23,22.7
			c3.8,4.2,4.6,9.8,4.6,15.4c1.2,4.4-1,7.8-3.3,11c-4.6,6.7-10.9,11.7-16.4,17.5c-9.9,9.7-19.6,19.5-29.3,29.3
			c-14.7,14.6-29.3,29.2-43.9,44c-13,13-26.2,25.9-39,39.1c-7,7.2-14.7,12.8-24,16.6c-11.8,4.7-23.3,10.3-35,15.4
			c-7.6,3.3-14.3,1.7-20.1-3.6c-6-5.4-6.9-12.2-4-19.5c5.5-13.6,11.8-26.9,17.8-40.3c1.3-2.9,2.4-6,4.3-8.7
			c14.3-15,29.3-29.4,43.9-44.2c9.8-9.6,19.5-19.4,29.1-29.1c7.9-7.8,15.7-15.6,23.5-23.5C283.6,86.9,285.3,85.4,287.3,84.4z"/>
		<path class="st2" d="M287.3,84.4c-8.9,9.9-18.4,19-28,28.2c-2.5,1.4-5.2,1.4-8,1.4c-7.4,0.2-14.8-0.7-22.1,0.7
			c-2.3,0-2.1-2-2.6-3.4c-2.1-5.1-6.9-5.8-10.4-1.5c-1,1.2-1.6,2.8-3.2,3.5c-4.4,1-8.9,0.5-13.4,0.6c-1.5-0.4-1.6-1.8-2.2-2.9
			c-3.1-5.2-7.3-5.5-10.9-0.7c-0.9,1.1-1.4,2.5-2.9,3c-4.3,0.8-8.6,0.8-12.9,0c-1.5-0.5-2.1-1.9-2.9-3c-3.4-4.5-7.1-4.5-10.5,0
			c-0.9,1.1-1.4,2.6-2.9,3.1c-4.6,0.5-9.2,1.6-13.5-0.9c0-0.2-0.1-0.3-0.1-0.5c-0.5-12.7,0.7-14,13.3-14c31.4,0,62.9,0,94.3,0
			c4.5,0,8-1.1,9-6.1c0.9-4.3-1.9-6.4-5-8.4C264,83.9,275.6,83.5,287.3,84.4z"/>
		<path class="st2" d="M357.6,112.4c3.6-3.7,7-7.4,10.7-11c5-4.8,9-10,10-17c4.8,0,9.5,0.1,14.3,0.1c-2.8,2.7-4.1,5.8-2.4,9.5
			c1.7,3.7,5,4.1,8.5,4.1c17.9-0.1,35.8,0,53.6,0c7.8,0,10.2,2.4,10.2,10c0,5-0.1,10,0.1,15c0.1,3-0.6,4.5-3.9,4.2
			c-4.2-0.3-8.4-0.1-12.6-0.2c-0.5-0.6-1.3-1-1.7-1.7c-5.3-9.4-13.5-11.8-23.8-11.5c-18.6,0.5-37.2,0.2-55.7,0.1
			C362.4,114,359.7,114.6,357.6,112.4z"/>
		<path class="st3" d="M186.6,185.4c-7.5,16.6-15.1,33.1-22.3,49.7c-2.8,6.5-1.3,12.8,3.7,17.8c5,5,11.3,6.6,17.8,3.8
			c15.8-6.8,31.5-13.9,47.2-20.9c2.1-0.9,3.6-2.7,5.2-4.3c15.6-15.4,31.1-30.9,46.7-46.3c2.5-1.2,5.2-1.4,8-1.4c33.3,0,66.7,0,100,0
			c4.4,0,8.7,0.6,12.8,2.2c3.5,1.4,6.5,3.5,8,7.2c0.2,1.7-0.8,2.8-1.9,3.6c-2.8,2.1-4.8,4.7-5.9,8c-0.9,2.9-3.1,4-6,4
			c-16.8,0.1-33.6,0.1-50.4,0c-2.9,0-4.8-1.3-5.8-4.1c-2.5-6.9-7.8-10-14.9-10.2c-4.4-0.1-8.7-0.4-13.1,0.3
			c-7.9,1.2-12.3,6.3-12.5,14.2c-0.1,4,0.1,8.1,0,12.1c-0.2,6.8,3,11.5,9.3,13.8c3.8,1.4,5.3,3.7,5.3,7.6c0,16-0.1,32,0,48
			c0,3.9-1.5,6.2-5.3,7.5c-6.4,2.2-9.5,6.8-9.3,13.7c0.2,4.4-0.1,8.7,0.1,13.1c0.3,8,5.2,12.9,13.1,13.2c4.7,0.2,9.4,0,14.1,0
			c6.4,0,10.9-3,12.8-9.1c1.3-4.1,3.7-5.5,7.9-5.5c15.8,0.1,31.7,0,47.5,0c3.2,0,6.3,0.5,7.4,4.1c1.7,5.6,5.7,8.8,10.9,10.9
			c4.3,3.1,5.2,9.2,2.3,15.4c-1.8,0.1-3.5,0.2-5.3,0.2c-87.2,0-174.5,0-261.7,0c-10,0-11.4-1.4-11.4-11.5c0-50.7,0-101.4,0-152.2
			c0-1.8,0.1-3.5,0.2-5.3c1.7-1.6,3.8-1.5,5.9-1.6c11.4-0.1,22.7-0.1,34.1,0C182.8,183.8,185,183.6,186.6,185.4z"/>
		<path class="st4" d="M52.4,266.7c0,11.4,0.1,22.9,0.1,34.3c0,13.4,7,21.7,20.3,24c5.7,0.7,11.5,0.3,17.2,0.3
			c3.2,0,4.4,1.3,4.5,4.2c0.1,3.7,0.5,7.4-0.5,11c-1.3,2.5-3.6,1.9-5.5,1.4c-17.7-4.5-35.5,9.7-34.8,30c0.3,8.6-0.1,17.1,0.1,25.7
			c0.3,14.3,9.7,25.6,23.4,28.2c12.5,2.4,25.6-5,30.9-17.4c0.9-2.2,1.1-4.8,3.8-5.9c2.5-0.7,5.1-0.6,7.7-0.6c77.1,0,154.3,0,231.4,0
			c3,0,6.2-0.6,8.8,1.6c0.1,10.3,0.2,20.7,0.1,31c0,4.9-2.6,7.4-7.4,7.7c-1.1,0.1-2.3,0-3.4,0c-100.1,0-200.2,0-300.3,0
			c-4,0-8.3,0.4-10-4.7c-0.8-1.7-0.4-3.5-0.4-5.3c0-53,0-106,0-159c0-7.8,0.6-8.4,8.5-8.1C48.9,265.2,50.9,265.2,52.4,266.7z"/>
		<path class="st4" d="M419,354c0-3.2-0.2-6.4,0.1-9.6c0.2-2.6-1-3.8-3-4.7c1.4-1.8,3.5-1.5,5.4-1.5c3.7-0.1,7.4,0.1,11.1-0.1
			c8.2-0.3,13.2-5,13.9-13.2c0.4-4.8,0.3-9.7,0-14.5c-0.3-6-3.9-10-9.1-12.1c-3.9-1.6-5.4-3.9-5.4-8.1c0.1-15.7,0.1-31.3,0-47
			c0-4.2,1.4-6.9,5.6-8.4c6-2.2,8.7-6.9,8.9-13.2c0.1-3.7,0.1-7.4,0-11.1c-0.2-9.9-5.6-15.5-15.7-15.8c-4.5-0.2-9-0.3-13.6,0.2
			c-1.4,0.2-2.9,0.5-4.2-0.6c-4.3-7-11.2-8.8-18.7-8.8c-34.5-0.1-68.9,0-103.4-0.1c-2.1,0-4.2-0.1-6.3-0.1
			c14.3-14.9,28.9-29.5,43.9-43.8c9.4-2,18.7-2.1,28.1,0.1c2.4,0.2,4.8,0.4,7.2,0.4c31.2,0,62.3,0.1,93.5-0.1c3.8,0,5.2,0.6,5.2,4.9
			c-0.1,65.9-0.1,131.7-0.1,197.6c0,7.6-2.2,9.9-9.7,9.8C441.6,354.2,430.3,354,419,354z"/>
		<path class="st5" d="M93.2,341.7c0-4-0.1-8,0.1-12c0.1-2.9-0.9-3.8-3.8-3.9c-5.5-0.2-11.1,1-16.6-0.7c14.9,0,29.7-0.1,44.6,0
			c2.8,0,6.7-2.1,8-0.2c1.5,2.1,0.5,5.9,0.5,8.9c0,4.5-0.1,9,0,13.6c0.3,11.8,8.9,20.7,20.7,21.5c1.9,0.1,3.9,0.1,5.8,0.1
			c67.3,0,134.7,0.1,202-0.1c4.5,0,5.7,1.1,5.6,5.6c-0.4,9.7-0.2,19.4-0.3,29c-83,0-166,0-248.9,0c-1.1-0.8-0.9-2-0.8-3.1
			c0.5-9.2,0.1-18.4,0.2-27.6c0.2-11.8-4-21.4-14.3-27.9C94.8,344.1,93.4,343.4,93.2,341.7z"/>
		<path class="st4" d="M186.6,185.4c-15.3,0-30.5,0-45.8-0.1c-0.1-13.4,0-26.8-0.3-40.1c-0.1-3.7,2.1-3.2,4.4-3.2
			c19.4,0,38.7,0,58.1,0c2.2,0,4.5-0.3,6.7-0.4c6.8-1.8,13.7-2.6,20.4,0.2C216,156.7,201.4,171.1,186.6,185.4z"/>
		<path class="st6" d="M67.8,304.8c-0.9-1.1-0.7-2.4-0.7-3.7c0-10.8-0.1-21.6,0-32.5c0-6.7,2.8-9.5,9.4-9.5
			c13.4-0.1,26.8-0.1,40.2,0c6.4,0,9.2,2.8,9.3,9.1c0.1,11,0.1,22,0,33c0,6.5-2.7,9.1-9.1,9.2c-7.9,0-15.8-0.1-23.7-0.1
			c-1.7-1.9-1.4-4.2-1.4-6.4c-0.1-8.1,0.1-16.1-0.1-24.2c-0.1-8.5-3-11.4-11.4-11.4c-11.9-0.1-10.8-0.9-10.8,10.5
			c0,6.8,0,13.5,0,20.3C69.4,301.1,69.7,303.3,67.8,304.8z"/>
		<path class="st5" d="M52.4,266.7c-3.4,0-6.8,0.1-10.2,0c-2.5-0.1-3.5,0.9-3.4,3.4c0.1,1.3,0,2.6,0,3.9c0,54.5,0,109-0.1,163.5
			c-1.4-1.5-0.9-3.4-0.9-5.1c0-66,0.1-132.1,0-198.1c0-3.6,0.9-4.5,4.5-4.5c26.3,0.2,52.6,0.2,78.9,0c4,0,5,1.2,4.7,4.9
			c-0.3,3.4,1,7.6-0.6,9.9c-1.6,2.3-5.8-0.3-9-0.2c-12.7,0.3-25.5,0.1-38.3,0.1C62.6,244.5,54.6,251.4,52.4,266.7z"/>
		<path class="st7" d="M230.1,141.7c-6.8-0.1-13.6-0.1-20.4-0.2c3.2-2.3,4.8-5.3,3.5-9.2c-1.4-4.2-5-5-9-5
			c-19.5,0-39.1-0.1-58.6,0.1c-4.1,0-5.5-1.1-5-5.1c0.3-3.2,0.2-6.4,0.2-9.7c4.8,0,9.5,0,14.3,0c5.9,9.2,9.8,7.7,14.9,0
			c4.8,0,9.5,0,14.3,0c0.9,0.5,1.2,1.5,1.7,2.3c3.2,5.1,7.3,5.3,11.1,0.7c0.6-0.7,1-1.6,2-2c4.7-2.1,9.6-0.5,14.4-1
			c0.4,0.2,0.8,0.5,1.1,0.9c4.7,6.8,6.4,7,12.8,1.4c0.2-0.2,0.5-0.3,0.9-0.4c1.1-1.7,2.6-2,4.5-2c8.9,0.1,17.7,0.1,26.6,0.1
			C249.8,122.6,240.2,132.4,230.1,141.7z"/>
		<path class="st7" d="M356.8,141.5c-9.4,0-18.7-0.1-28.1-0.1c9.3-10,19-19.5,28.9-29c22.9,0,45.8,0.1,68.7,0.1
			c9.6,0,16.8,5.3,19.8,14.6c-26.6,0-53.3,0.1-79.9,0.1c-1.5,0-2.9,0-4.4,0c-3.8,0-7.2,1-8.5,5C352,136.2,353.6,139.2,356.8,141.5z"
			/>
		<path class="st2" d="M39,215.2c-1.2-0.4-1-1.5-1-2.4c0-6.3-0.1-12.6,0.1-18.9c0.1-4.8,2.8-7.7,7.4-7.7c25.8-0.1,51.6,0,77.3-0.1
			c2.5,0,3.4,0.8,3.4,3.3c-0.1,7.6-0.1,15.1,0,22.7c0,2.7-1.1,3.3-3.5,3.2c-4-0.2-8.1-0.1-12.1-0.2c-0.9-0.9-0.9-2-0.8-3.1
			c0.4-10-4.6-13.3-13.5-9.1c-1.4-0.9-1.1-2.5-1.6-3.8c-1.7-5.1-6.3-5.9-9.9-1.9c-1.1,1.3-1.7,3.1-3.6,3.6c-4.5,1-9.3-0.7-13.5,2.2
			c-2-0.3-1.6-2.2-2.1-3.4c-1.9-5.1-6.2-6.1-10.1-2.2c-1.2,1.2-2.1,2.9-4,3.4c-2.2,0.6-4.5,0.5-6.7,0.4c-3.4-0.1-4.5,1.4-4.5,4.6
			C40.2,209,41.2,212.3,39,215.2z"/>
		<path class="st8" d="M67.8,304.8c0.1-11,0.3-22,0.1-32.9c-0.1-3.9,0.8-5.7,5-5.3c3.2,0.3,6.5,0,9.7,0.1c6.6,0.1,10.5,4,10.5,10.5
			c0.1,11,0,22,0,32.9c-6.1,0.1-12.1,0.2-18.2,0.1C71.4,310.3,68.5,308.9,67.8,304.8z"/>
		<path class="st9" d="M39,215.2c0-3.9,0.1-7.7-0.1-11.6c-0.2-3,1.1-4,4-3.8c3.2,0.2,6.4,0,9.6,0c0.7,0.4,1,1.2,1.4,1.9
			c3.3,5.6,6.4,6.1,11.6,1.9c0.5-0.4,1-0.8,1.7-0.9c1-2.2,2.5-3.2,5.1-3c3.1,0.3,6.3,0.1,9.4,0.1c0.1,0.1,0.3,0.2,0.4,0.3
			c5.4,7.8,6.5,8.1,14.3,2.6c2.1-4.9,6.1-3.1,9.4-2.3c4.1,1,6.4,5.8,5.7,10c-0.3,1.6-0.6,3.1-0.8,4.7
			C86.8,215.2,62.9,215.2,39,215.2z"/>
		<path class="st10" d="M225.3,213.4c-7-6.9-14-13.8-21.1-20.6c-1.8-1.7-1.3-2.7,0.2-4.2c29.2-29.1,58.4-58.3,87.6-87.5
			c1.2-1.2,2.1-2.2,3.8-0.4c7,7.3,14.2,14.5,21.3,21.7c0.5,2.2-1.2,3.2-2.4,4.4c-28.1,28.1-56.2,56.2-84.3,84.3
			C229.1,212.4,228,214.7,225.3,213.4z"/>
		<path class="st6" d="M327.8,111.6c-7.2-7.1-14.4-14.2-21.7-21.2c-1.4-1.3-1.4-2.2,0-3.5c6.9-6.7,13.8-13.5,20.6-20.2
			c5.3,2.9,10.4,5.9,13.3,11.5c7,13.4-1.3,27.3-10.9,33.5C328.8,111.9,328.3,111.8,327.8,111.6z"/>
		<path class="st11" d="M327.8,111.6c6-4.8,11-10.2,13-18c2-8-1-16.8-7.9-21.7c-2.2-1.6-5-2.4-6.1-5.2c2.2-2.3,4.3-4.8,6.7-6.9
			c3.9-3.7,7-3.7,10.9,0.2c5.7,5.5,11.3,11.1,16.7,16.7c3.6,3.8,3.6,7.3,0,11c-8.8,9-17.7,17.8-26.6,26.7
			C330.2,118.6,330,112.6,327.8,111.6z"/>
		<path class="st12" d="M225.3,213.4c1.5,0,2.3-1,3.2-1.9c29.3-29.3,58.6-58.6,87.9-87.9c0.3-0.3,0.5-0.8,0.8-1.2
			c5,4.3,5,4.3,0.6,8.7c-27.6,27.6-55.2,55.2-82.8,82.7C230,218.8,230,218.8,225.3,213.4z"/>
		<path class="st13" d="M216.3,227.2c-11,4.9-22.9,10.2-34.8,15.5c-1,0.5-2,1.1-3.1,0.1c-1.3-1.2-0.7-2.3-0.1-3.5
			c5.2-11.7,10.4-23.5,15.5-34.8C201.3,212.1,208.8,219.6,216.3,227.2z"/>
		<path class="st14" d="M199.1,113.6c-0.9,4-3.3,6.7-7.6,6.5c-4.4-0.2-6.7-3.1-7.2-7.5c1.1-4.3,3.3-7.4,8.2-6.8
			C197,106.2,198.9,109.2,199.1,113.6z"/>
		<path class="st15" d="M170,112.6c-0.5,4.6-3,7.6-7.7,7.5c-4.5-0.1-6.7-3.1-7.2-7.5c0.7-4,2.8-6.7,7.2-6.9
			C167,105.5,169,108.5,170,112.6z"/>
		<path class="st14" d="M228.2,114.5c-1.4,3.7-3.9,6-7.9,5.5c-4.2-0.5-6.1-3.5-6.8-7.5c1-3.1,2.3-5.9,5.9-6.7
			C224.6,104.7,227.9,107.9,228.2,114.5z"/>
		<path d="M413.2,194.1c6.9-1.5,13.8-1,20.7-0.7c8.2,0.4,13.9,6.8,14.1,15c0.1,4.5,0.1,9,0,13.6c-0.1,7.5-4.2,13-11.5,14.7
			c-2.7,0.6-3.2,1.8-3.2,4.3c0.1,17.1,0.1,34.2,0,51.3c0,2.6,0.7,3.4,3.2,4.1c7.5,2,11.4,7.4,11.5,15.2c0,4.5,0.1,9,0,13.6
			c-0.3,8.2-6.4,14.3-14.5,14.5c-5.8,0.2-11.6,0-17.4,0c-6.2-1.8-10.6-5.5-11.8-12.1c-0.4-2-1.3-2.6-3.3-2.6
			c-17.6,0.1-35.2,0.1-52.8,0c-2,0-2.6,0.6-3,2.6c-1.9,8-7.1,12-15.2,12.1c-4.8,0.1-9.7,0.1-14.5-0.1c-7.5-0.3-13.4-6.2-13.7-13.6
			c-0.2-4.8-0.1-9.7-0.1-14.5c0.1-8.1,4-13.4,12-15.3c2.3-0.5,2.7-1.3,2.7-3.4c-0.1-17.5-0.1-34.9,0-52.4c0-2.1-0.5-3-2.8-3.6
			c-8-2-11.8-7-11.9-15.3c-0.1-4.4-0.1-8.7,0-13.1c0.2-8.5,6-14.6,14.5-15c5-0.2,10-0.2,15,0c7.1,0.3,12.6,4.8,14.1,11.8
			c0.5,2.3,1.3,2.8,3.4,2.8c17.5-0.1,34.9,0,52.4,0c1.5,0,2.9,0,3.2-2C404.9,200.2,408.7,196.9,413.2,194.1z"/>
		<path d="M213.5,339.6c-16.3,0-32.6,0-48.9,0c-6.1,0-9.4-2.5-9.4-7.2c0-4.7,3.2-7.4,9.3-7.4c32.9,0,65.8,0,98.7,0
			c6.7,0,10.6,4.8,8.4,10.1c-1.5,3.7-4.6,4.5-8.3,4.5C246.7,339.6,230.1,339.6,213.5,339.6z"/>
		<path d="M214,295.8c16.3,0,32.6,0,48.9,0c6,0,9.4,2.8,9.4,7.3c0,4.6-3.5,7.3-9.5,7.3c-32.7,0-65.5,0-98.2,0
			c-6.1,0-9.3-2.6-9.3-7.3c0-4.7,3.3-7.3,9.4-7.3C181.1,295.8,197.5,295.8,214,295.8z"/>
		<path d="M235.4,281.2c-9,0-18.1,0-27.1,0c-5.8,0-9.4-3-9.2-7.6c0.2-4.4,3.5-7,9.2-7c18.3,0,36.5,0,54.8,0c5.8,0,9,2.5,9.2,7
			c0.2,4.6-3.4,7.6-9.2,7.6C253.8,281.2,244.6,281.2,235.4,281.2z"/>
		<path d="M93.2,341.7c13.1,6.6,19,17.2,18.4,31.8c-0.4,10,0.6,20-0.6,30c-3.8,14.6-14.5,23.8-28.2,24.1
			c-12.8,0.3-24.6-8.1-28.6-20.5c-0.7-2.3-1.4-4.7-1.4-7.1c-0.1-11-0.5-22,0.1-32.9c1-18.6,19.2-31.2,37.2-26.4
			C91,341.1,92.1,341.4,93.2,341.7z"/>
		<path d="M184.4,427.6c-16.5,0-32.9,0-49.4,0c-6,0-9.5-3.2-9-8.2c0.4-4.1,3.3-6.4,8.6-6.5c14.2-0.1,28.4,0,42.6,0
			c18.7,0,37.5,0,56.2,0c6.1,0,9.6,2.6,9.7,7.1c0.1,4.7-3.6,7.6-9.8,7.6C217,427.6,200.7,427.6,184.4,427.6z"/>
		<path d="M323.7,413c4.7,0,9.3-0.1,14,0c4.7,0.1,7.6,2.8,7.7,6.9c0.1,4.3-2.8,7.6-7.5,7.7c-9.7,0.2-19.3,0.2-29,0
			c-4.5-0.1-7.3-3.3-7.3-7.4c0.1-4.1,2.9-7,7.5-7.1C314,412.9,318.8,413,323.7,413z"/>
		<path class="st16" d="M272.1,427.5c-2.6,0-5.2,0.2-7.7-0.1c-4-0.4-6.8-3.8-6.8-7.5c0.1-3.8,2.9-6.8,7.2-6.9c5-0.2,10-0.2,15,0
			c4.2,0.2,7.2,3.2,7.3,6.9c0.1,3.9-3,7.2-7.2,7.6C277.2,427.7,274.6,427.6,272.1,427.5C272.1,427.6,272.1,427.5,272.1,427.5z"/>
		<path class="st16" d="M312.3,398.3c-1.9,0-3.9,0.2-5.7-0.5c-3.5-1.3-5.2-3.8-4.9-7.4c0.2-3.7,2.3-6,6-6.5c2.7-0.4,5.5-0.3,8.2-0.2
			c4.8,0.2,7.5,2.9,7.6,7.1c0.1,4.1-2.7,7-7.2,7.5C314.9,398.4,313.6,398.3,312.3,398.3z"/>
		<path class="st16" d="M268.6,383.8c1.4,0,2.9-0.1,4.3,0c3.9,0.4,6.2,2.6,6.5,6.5c0.3,4.1-1.8,6.8-5.8,7.7
			c-3.2,0.7-6.4,0.6-9.6,0.1c-4.2-0.7-6.6-3.8-6.3-7.8c0.4-4.2,2.9-6.3,7-6.6C266,383.6,267.3,383.7,268.6,383.8
			C268.6,383.7,268.6,383.7,268.6,383.8z"/>
		<path class="st15" d="M96.3,202.8c-1.5,3.8-4.3,5.4-8.3,4.9c-4.5-0.6-5.7-4-6.4-7.8c3.3-6.9,8.5-8.6,12.8-4.2
			C96.6,197.7,96.2,200.3,96.3,202.8z"/>
		<path class="st15" d="M67.1,202.7c-1.7,3.9-4.6,5.7-8.8,4.8c-4.1-0.8-5.4-4-5.9-7.7c1.3-3.2,3.1-6,7.1-6.3
			C64.5,193.2,67,196.2,67.1,202.7z"/>
		<path class="st3" d="M330.8,266.6c0-8.6,0.1-17.1,0-25.7c0-2.4,0.4-3.7,3.1-4.2c6.1-1.2,10-5.3,11.2-11.3c0.6-2.7,1.7-2.9,3.8-2.9
			c17.1,0,34.2,0.1,51.3,0c2.6,0,3.6,0.7,4.2,3.3c1.3,5.9,5.1,9.7,11,10.9c2.7,0.6,3.2,1.8,3.2,4.3c-0.1,17.1-0.1,34.2,0,51.3
			c0,2.1-0.1,3.3-2.8,3.9c-6.1,1.3-10.4,5.1-11.5,11.5c-0.4,2.3-1.5,2.7-3.6,2.7c-17.4-0.1-34.9-0.1-52.3,0c-1.7,0-2.8,0-3.2-2.4
			c-0.9-6.4-5.1-10.5-11.3-11.8c-3.2-0.7-3.2-2.1-3.2-4.5C330.9,283.4,330.8,275,330.8,266.6z"/>
		<path class="st17" d="M425.8,325c-8.2-0.2-6.9,1.2-7-7.8c-0.1-6.8,0-6.8,8.6-6.7c7.2,0.1,6-1.3,6,8.8
			C433.4,326,434.3,324.8,425.8,325z"/>
		<path class="st17" d="M330.8,215c0,7.4,0,7.4-7.9,7.4c-7.9-0.1-6.6,1.2-6.6-8.2c0-7.5-1.2-6.3,8.4-6.4
			C331.9,207.8,330.7,207,330.8,215z"/>
		<path class="st9" d="M316.2,317.7c0-7.3,0-7.3,7.9-7.3c6.7,0,6.7,0,6.7,8.5c0,6.1,0,6.2-8.6,6.1
			C315.2,324.9,316.3,325.9,316.2,317.7z"/>
		<path class="st18" d="M426.2,222.4c-8.6-0.2-7.3,1.2-7.4-8.4c0-7.3-0.8-6.1,8.1-6.2c7.8,0,6.4-0.4,6.5,8.4
			C433.5,222.4,433.4,222.4,426.2,222.4z"/>
		<path class="st7" d="M96.3,399.7c-1,8-7.1,13.5-14.6,13.2c-7.7-0.3-14-6.1-14.3-14.2c-0.4-10.1-0.4-20.3,0-30.5
			c0.3-6.5,3.9-11.3,10.3-13.2c6.1-1.8,11.4-0.3,15.5,4.8c1,2.4,1.4,4.9,1.5,7.5c0.2,9.9-0.7,19.9,1.9,29.6
			C96.8,397.8,96.7,398.8,96.3,399.7z"/>
		<path class="st19" d="M96.3,399.7c-4.6-13-2.6-26.5-3.1-39.9c2.1,2,3,4.5,3.2,7.3C97.2,378,97.4,388.9,96.3,399.7z"/>
		<path d="M374.7,237.3c16.1,0,29.3,13,29.3,29.1c0,16-13.2,29.3-29.2,29.3c-16,0-29.3-13.3-29.4-29.2
			C345.4,250.5,358.6,237.3,374.7,237.3z"/>
		<path class="st20" d="M389.2,266.7c-0.1,8.1-6.3,14.5-14.3,14.5c-8,0-14.8-6.8-14.8-14.8c0-8.1,6.7-14.5,15.1-14.3
			C383.3,252.2,389.2,258.3,389.2,266.7z"/>
	</g>
</g>
</svg>
