<?xml version="1.0" encoding="utf-8"?>
<!-- Generator: Adobe Illustrator 25.4.1, SVG Export Plug-In . SVG Version: 6.00 Build 0)  -->
<svg version="1.1" id="Layer_1" xmlns="http://www.w3.org/2000/svg" xmlns:xlink="http://www.w3.org/1999/xlink" x="0px" y="0px"
	 viewBox="0 0 1000 500" style="enable-background:new 0 0 1000 500;" xml:space="preserve">
<style type="text/css">
	.st0{fill:#3F3F3F;}
	.st1{fill:#FEFEFE;}
	.st2{fill:#70D5F8;}
	.st3{fill:#F4C84D;}
	.st4{fill:#FB667F;}
	.st5{fill:#71D5F8;}
	.st6{fill:#87D148;}
	.st7{fill:#ECF3FB;}
	.st8{fill:#528FDA;}
	.st9{fill:#F4C74C;}
	.st10{fill:#6FD5F8;}
	.st11{fill:#FB657D;}
	.st12{fill:#EAF1F9;}
	.st13{fill:#C6D6E4;}
	.st14{fill:#FA647D;}
	.st15{fill:#010101;}
	.st16{fill:#F3C74B;}
</style>
<g>
	<g>
		<path d="M45.2-86.4l-11.6-40.8H44c2.4,9.4,6.5,24.6,7.4,31.9h0.1c1.3-7.5,5.5-22.4,8.3-31.9h9.4c2.6,9,7.1,25.7,8.2,31.6h0.1
			c1.2-7.4,5.2-22.5,7.5-31.6h10L82.8-86.4H72c-2.6-9-6.8-24.6-8.1-30.4h-0.1c-1.2,6.9-5.1,20.4-8,30.4H45.2z"/>
		<path d="M107.3-99c0.2,3.6,2.9,6.4,7.4,6.4c3.6,0,5.3-1.1,6.4-2.9h9.5c-1.8,5.3-6.3,10-15.9,10c-12.3,0-16.7-8.1-16.7-15.8
			c0-8.4,5.7-15.8,16.6-15.8c11.7,0,16.4,8,16.4,15.8c0,0.8,0,1.3-0.1,2.3H107.3z M121.3-104.8c-0.2-2.3-1.4-5.7-6.8-5.7
			c-5,0-6.8,2.7-7.1,5.7H121.3z"/>
		<path d="M136.9-129.5h9.5v16.4c1.5-1.8,4.3-4,9.9-4c8.1,0,14.6,6.3,14.6,15.2c0,10.3-6.8,16.4-15.2,16.4c-5.7,0-8.3-2.1-9.7-4.2
			c0,0.8-0.1,2.7-0.1,3.4h-9.1c0.1-4.3,0.1-6.7,0.1-10V-129.5z M161.2-101.5c0-4.2-2.2-8.3-7.4-8.3c-5.2,0-7.6,3.4-7.6,8.4
			c0,4.8,2.5,8.4,7.5,8.4C158.7-93,161.2-96.8,161.2-101.5z"/>
		<path d="M194.8-127.2h18.5c13.8,0,21.3,8.9,21.3,19.7c0,13.1-9.6,21.1-21.5,21.1h-18.3V-127.2z M204.7-94h7
			c8,0,12.3-4.5,12.3-13.2c0-7.6-4-12.2-12.2-12.3h-7.2V-94z"/>
		<path d="M249-99c0.2,3.6,2.9,6.4,7.4,6.4c3.6,0,5.3-1.1,6.4-2.9h9.5c-1.8,5.3-6.3,10-15.9,10c-12.3,0-16.7-8.1-16.7-15.8
			c0-8.4,5.7-15.8,16.6-15.8c11.7,0,16.4,8,16.4,15.8c0,0.8,0,1.3-0.1,2.3H249z M263-104.8c-0.2-2.3-1.4-5.7-6.8-5.7
			c-5,0-6.8,2.7-7.1,5.7H263z"/>
		<path d="M284.9-116.3c4.1,11.6,6.7,18.1,7.7,21.8h0.1c1.1-3.7,3.2-9.5,7.6-21.8h9.6l-12.4,30h-10.6l-12.3-30H284.9z"/>
		<path d="M321.9-99c0.2,3.6,2.9,6.4,7.4,6.4c3.6,0,5.3-1.1,6.4-2.9h9.5c-1.8,5.3-6.3,10-15.9,10c-12.3,0-16.7-8.1-16.7-15.8
			c0-8.4,5.7-15.8,16.6-15.8c11.7,0,16.4,8,16.4,15.8c0,0.8,0,1.3-0.1,2.3H321.9z M335.9-104.8c-0.2-2.3-1.4-5.7-6.8-5.7
			c-5,0-6.8,2.7-7.1,5.7H335.9z"/>
		<path d="M351.5-86.4v-43.2h9.5v43.2H351.5z"/>
		<path d="M401.6-101.4c0,9.2-6.4,15.8-17.5,15.8c-11.2,0-16.9-7.5-16.9-15.8c0-8.2,5.9-15.8,17.3-15.8
			C396.2-117.1,401.6-108.8,401.6-101.4z M376.9-101.4c0,4.7,2.6,8.7,7.5,8.7c5.1,0,7.4-3.9,7.4-8.5c0-4.5-2.2-8.8-7.5-8.8
			C379.2-110,376.9-106,376.9-101.4z"/>
		<path d="M417.4-89.3v15.5h-9.5V-109c0-2.4,0-4.9-0.1-7.4h9.3c0.1,0.6,0.2,2.6,0.2,3.9c1.7-2.5,4.7-4.7,10.4-4.7
			c7.7,0,14.1,6.4,14.1,15.2c0,10.4-7.5,16.4-15.3,16.4C421.7-85.5,418.8-87.4,417.4-89.3z M432.2-101.4c0-4.4-2.5-8.4-7.4-8.4
			c-5.5,0-7.6,3.5-7.6,8.5c0,5.1,2.6,8.3,7.5,8.3C429.5-93,432.2-96.4,432.2-101.4z"/>
		<path d="M448.2-108.6c0-2.6,0-5.1-0.1-7.7h9.1c0.2,1.2,0.2,2.5,0.3,3.5c1.6-2.2,4.4-4.4,9.1-4.4c5.3,0,7.9,2.3,9,4.9
			c1.6-2.2,4.3-4.9,10.1-4.9c6.3,0,11.2,3.7,11.2,12.7v18.1h-9.3v-17.9c0-2.6-0.9-5.7-4.8-5.7c-3.4,0-5.5,2.1-5.5,7.1v16.5h-9.4
			v-17.9c0-3-1.1-5.7-4.9-5.7c-3.8,0-5.5,2.8-5.5,7.1v16.5h-9.4V-108.6z"/>
		<path d="M512.6-99c0.2,3.6,2.9,6.4,7.4,6.4c3.6,0,5.3-1.1,6.4-2.9h9.5c-1.8,5.3-6.3,10-15.9,10c-12.3,0-16.7-8.1-16.7-15.8
			c0-8.4,5.7-15.8,16.6-15.8c11.7,0,16.4,8,16.4,15.8c0,0.8,0,1.3-0.1,2.3H512.6z M526.6-104.8c-0.2-2.3-1.4-5.7-6.8-5.7
			c-5,0-6.8,2.7-7.1,5.7H526.6z"/>
		<path d="M542.2-108.8c0-2.5,0-5.4-0.1-7.6h9.3c0.1,0.8,0.2,2.7,0.3,3.9c1.4-2.1,4.1-4.7,9.9-4.7c7.4,0,11.7,4.6,11.7,12.3v18.5
			h-9.6v-17c0-3.4-1.3-6.4-5.6-6.4c-4.4,0-6.5,3.1-6.5,8.5v15h-9.5V-108.8z"/>
		<path d="M578.3-116.3h5.4v-8.8h9.5v8.8h6.9v6.9h-6.9v12.6c0,2.6,0.5,3.7,3.4,3.7c0.8,0,1.7,0,2.6-0.2v6.5c-1.6,0.5-3.8,0.7-6,0.7
			c-7.4,0-9.5-3.2-9.5-9v-14.3h-5.4V-116.3z"/>
	</g>
</g>
<g>
	<g>
		<path class="st0" d="M522.3,258.8v16.2h-7.7v-40.5h16.1c8,0,12.3,4.9,12.3,11.1c0,5.4-2.7,8.4-5.3,9.6c1.8,0.7,4.6,2.8,4.6,10.1v2
			c0,2.7,0,5.8,0.5,7.7h-7.5c-0.6-1.8-0.8-4.8-0.8-9.1v-0.6c0-4.4-1-6.5-6.9-6.5H522.3z M522.3,251.9h6.6c4.3,0,6-1.8,6-5.2
			c0-3.3-1.9-5.1-5.8-5.1h-6.8V251.9z"/>
		<path class="st0" d="M554.8,261.7c0,3.8,1.7,7.5,5.5,7.5c3.2,0,4.1-1.4,4.8-3.2h7.6c-1,3.7-4,9.8-12.6,9.8c-9.1,0-13-7.5-13-15.5
			c0-9.5,4.4-16.3,13.3-16.3c9.5,0,12.7,7.6,12.7,15.1c0,1,0,1.7-0.1,2.6H554.8z M565.4,256.5c-0.1-3.5-1.3-6.5-5-6.5
			c-3.7,0-5.1,2.8-5.4,6.5H565.4z"/>
		<path class="st0" d="M583.9,265.9c0.6,2.4,2.4,3.8,5.2,3.8c2.8,0,3.8-1.1,3.8-3c0-2-1.2-2.7-5.1-3.8c-9-2.4-10.4-5.5-10.4-9.8
			c0-4.5,2.9-9.2,11.2-9.2c8.3,0,11.2,5,11.4,9.2h-7.2c-0.2-1.1-0.9-3.2-4.5-3.2c-2.5,0-3.3,1.2-3.3,2.6c0,1.5,0.9,2.2,5.3,3.4
			c9.2,2.4,10.5,5.8,10.5,10.3c0,5-3.5,9.6-11.9,9.6c-8.4,0-11.8-4.5-12.4-9.8H583.9z"/>
		<path class="st0" d="M613.3,272.4v14.3h-7.6V252c0-2.5,0-4.9-0.1-7.3h7.4c0.1,0.8,0.2,2.7,0.2,3.8c1.2-2.2,3.6-4.5,8-4.5
			c6.2,0,11,5.7,11,15.1c0,10.7-5.3,16.7-12,16.7C616.3,275.8,614.3,274.1,613.3,272.4z M624.5,259.4c0-5.6-2-8.7-5.7-8.7
			c-4.3,0-5.9,3.1-5.9,9.2c0,5.8,1.4,9.2,5.5,9.2C622.5,269.1,624.5,265.6,624.5,259.4z"/>
		<path class="st0" d="M663.1,259.8c0,9.2-5,16-13.7,16c-8.5,0-13.5-6.7-13.5-15.8c0-9.4,5.1-16,13.9-16
			C657.9,244,663.1,250.3,663.1,259.8z M643.6,259.9c0,5.9,2.3,9.3,5.9,9.3c3.7,0,5.8-3.5,5.8-9.3c0-6.4-2.1-9.4-5.9-9.4
			C645.9,250.5,643.6,253.4,643.6,259.9z"/>
		<path class="st0" d="M668.4,252.3c0-2.6,0-5.4-0.1-7.7h7.4c0.2,0.8,0.3,2.9,0.3,3.9c0.9-1.9,3.2-4.6,8-4.6c5.5,0,9.1,4.1,9.1,11.8
			v19.3h-7.6v-18.4c0-3.4-1-5.9-4.4-5.9c-3.2,0-5.1,2-5.1,7.4v16.9h-7.6V252.3z"/>
		<path class="st0" d="M705.5,265.9c0.6,2.4,2.4,3.8,5.2,3.8c2.8,0,3.8-1.1,3.8-3c0-2-1.2-2.7-5.1-3.8c-9-2.4-10.4-5.5-10.4-9.8
			c0-4.5,2.9-9.2,11.2-9.2c8.3,0,11.2,5,11.4,9.2h-7.2c-0.2-1.1-0.9-3.2-4.5-3.2c-2.5,0-3.3,1.2-3.3,2.6c0,1.5,0.9,2.2,5.3,3.4
			c9.2,2.4,10.5,5.8,10.5,10.3c0,5-3.5,9.6-11.9,9.6c-8.4,0-11.8-4.5-12.4-9.8H705.5z"/>
		<path class="st0" d="M727.3,232.2h7.6v7.5h-7.6V232.2z M727.3,244.7h7.6v30.4h-7.6V244.7z"/>
		<path class="st0" d="M746.9,244.7c2.6,10.3,4.8,19.3,5.3,23h0.1c0.8-5,3.5-14.2,5.9-23h7.6l-9.7,30.4h-8l-9.3-30.4H746.9z"/>
		<path class="st0" d="M775.6,261.7c0,3.8,1.7,7.5,5.5,7.5c3.2,0,4.1-1.4,4.8-3.2h7.6c-1,3.7-4,9.8-12.6,9.8c-9.1,0-13-7.5-13-15.5
			c0-9.5,4.4-16.3,13.3-16.3c9.5,0,12.7,7.6,12.7,15.1c0,1,0,1.7-0.1,2.6H775.6z M786.2,256.5c-0.1-3.5-1.3-6.5-5-6.5
			c-3.7,0-5.1,2.8-5.4,6.5H786.2z"/>
		<path class="st0" d="M812.8,234.6h14.5c10.7,0,17.7,7.8,17.7,19.7c0,11.8-6.8,20.8-18,20.8h-14.2V234.6z M820.7,268h5.9
			c7,0,10.1-5.8,10.1-13.7c0-6.6-2.9-12.7-10.1-12.7h-6V268z"/>
		<path class="st0" d="M857.1,261.7c0,3.8,1.7,7.5,5.5,7.5c3.2,0,4.1-1.4,4.8-3.2h7.6c-1,3.7-4,9.8-12.6,9.8c-9.1,0-13-7.5-13-15.5
			c0-9.5,4.4-16.3,13.3-16.3c9.5,0,12.7,7.6,12.7,15.1c0,1,0,1.7-0.1,2.6H857.1z M867.7,256.5c-0.1-3.5-1.3-6.5-5-6.5
			c-3.7,0-5.1,2.8-5.4,6.5H867.7z"/>
		<path class="st0" d="M886.1,265.9c0.6,2.4,2.4,3.8,5.2,3.8c2.8,0,3.8-1.1,3.8-3c0-2-1.2-2.7-5.1-3.8c-9-2.4-10.4-5.5-10.4-9.8
			c0-4.5,2.9-9.2,11.2-9.2c8.3,0,11.2,5,11.4,9.2h-7.2c-0.2-1.1-0.9-3.2-4.5-3.2c-2.5,0-3.3,1.2-3.3,2.6c0,1.5,0.9,2.2,5.3,3.4
			c9.2,2.4,10.5,5.8,10.5,10.3c0,5-3.5,9.6-11.9,9.6c-8.4,0-11.8-4.5-12.4-9.8H886.1z"/>
		<path class="st0" d="M907.9,232.2h7.6v7.5h-7.6V232.2z M907.9,244.7h7.6v30.4h-7.6V244.7z"/>
		<path class="st0" d="M947.4,271.4c0,9.8-3.3,15.9-13.7,15.9c-10,0-12-6.2-12.3-9.6h7.8c0.5,2.1,1.9,3.5,4.9,3.5
			c4.9,0,5.9-3.3,5.9-9.3v-1.5c-1.4,2.6-3.7,4.3-7.8,4.3c-7.2,0-11.4-6.6-11.4-14.7c0-9.5,5.2-16,12-16c4.7,0,6.7,2.5,7.1,3.9
			c0.1-0.8,0.2-2.7,0.3-3.2h7.2c0,2.7-0.1,5.8-0.1,8.7V271.4z M928.7,259.6c0,5.2,2.4,8.3,5.7,8.3c4.6,0,5.8-3.5,5.8-8.6
			c0-5.1-0.8-8.6-5.7-8.6C931.3,250.7,928.7,253.5,928.7,259.6z"/>
		<path class="st0" d="M954.2,252.3c0-2.6,0-5.4-0.1-7.7h7.4c0.2,0.8,0.3,2.9,0.3,3.9c0.9-1.9,3.2-4.6,8-4.6c5.5,0,9.1,4.1,9.1,11.8
			v19.3h-7.6v-18.4c0-3.4-1-5.9-4.4-5.9c-3.2,0-5.1,2-5.1,7.4v16.9h-7.6V252.3z"/>
	</g>
</g>
<g>
	<g>
		<path class="st1" d="M22.1,94.1c0-25.6,0.1-51.2-0.1-76.9c0-2.7,0.5-3.3,3.3-3.3c153.4,0.1,306.8,0.1,460.2,0
			c2.7,0,3.3,0.5,3.3,3.3c-0.1,153.4-0.1,306.8,0,460.2c0,2.7-0.5,3.3-3.3,3.3c-153.4-0.1-306.8-0.1-460.2,0c-2.7,0-3.3-0.5-3.3-3.3
			c0.1-34.4,0.1-68.8,0.1-103.2c1.6-0.1,2.1,1.1,2.5,2.2c5.1,12.5,15.1,17.1,27.8,17.3c4.5,0.1,9.1,0,13.6,0c37.1,0,74.3,0,111.4,0
			c1.5,0,3,0,4.5,0c4.8,0.2,5.9,1.2,6,6c0.2,8.9,0.2,17.9,0,26.8c-0.1,5.2-1.2,6.2-6.7,6.3c-7,0.2-13.9,0-20.9,0.1
			c-4.2,0.1-8.1,0.9-11.3,4c-7.2,6.9-4.7,18.4,4.7,21.7c3,1,6.2,1.4,9.4,1.4c98.4,0,196.7,0.1,295.1-0.1c7.9,0,15.7-1,21.5-7.7
			c4.4-5,6.4-10.5,6.3-17c0-23.9,0-47.9,0-71.8c0-32.4-0.4-64.9,0.2-97.3c0.2-15-11-26.3-25.2-25.2c-5.1,0.4-10.3,0.2-15.5,0
			c-4.5-0.2-5.6-1.3-5.9-5.7c-0.1-1.8-0.1-3.6-0.1-5.5c0-42.4,0-84.9,0-127.3c0-16.1-7.8-25-23.8-27.4c-2.9-0.4-5.7-0.5-8.6-0.5
			c-117.2,0-234.3,0-351.5,0c-3.3,0-6.6,0.3-10,0.7c-10,1.1-16.7,6.5-20.9,15.4C24.5,92.1,24.3,94,22.1,94.1z"/>
		<path d="M22.1,94.1c1.4-0.8,1.2-2.3,1.7-3.5c4.1-9.8,11.3-15.5,21.9-16.7c2.1-0.2,4.2-0.3,6.4-0.3c119.9,0,239.7,0,359.6,0
			c7.6,0,14.8,1.1,20.7,6.4c6.4,5.7,9.2,12.8,9.2,21.4c-0.1,44.4,0,88.8-0.2,133.2c0,4.3,1.3,5.3,5.3,5.1c5.7-0.3,11.5-0.2,17.3-0.1
			c13.5,0.2,23.7,10.4,23.9,24c0.1,12.6,0,25.2,0,37.7c0,44.4,0,88.8,0,133.2c0,16.8-9.6,26.6-26.4,26.7c-25.6,0.1-51.2,0-76.8,0
			c-46.8,0-93.6,0-140.5,0c-27.9,0-55.8,0-83.6,0c-8.4,0-14.1-3.5-16.3-9.8c-3.4-9.8,3.6-19.3,14.6-19.5c8-0.2,16.1-0.2,24.1,0
			c2.9,0.1,3.9-0.7,3.8-3.7c-0.2-9.5-0.3-19.1,0-28.6c0.1-3.8-0.9-4.8-4.7-4.8c-41.8,0.1-83.7-0.3-125.5,0.3
			c-16.5,0.3-28.7-4.3-34.4-20.7C22.1,280.9,22.1,187.5,22.1,94.1z"/>
		<path class="st2" d="M130.4,426.9c-0.5,3.7-2.7,5.7-6.5,5.5c-2.8-0.2-3.8,0.9-3.6,3.7c0.3,3.9-1.8,6.2-5.5,6.3
			c-3.9,0.1-5.8-2.5-5.5-6.2c0.2-3.2-1.2-3.9-4-3.7c-3.6,0.2-5.8-1.6-6-5.3c-0.2-3.7,1.8-5.7,5.4-5.9c3.2-0.2,4.9-1.1,4.7-4.8
			c-0.2-3.1,1.8-5,5.2-5c3.4,0,5.8,1.8,5.7,5.1c-0.1,3.4,1.2,4.4,4.3,4.6C127.8,421.3,130.2,423.2,130.4,426.9z"/>
		<path class="st3" d="M487,157.9c-6.5,2-10.5,6.1-12.9,13.2c-2.6-6.9-6.4-11.4-14.3-13c7.4-2.4,12.1-6.1,14.1-13.9
			C476.4,151.5,480.4,156,487,157.9z"/>
		<path class="st4" d="M277,46.4c-6,2.2-10,5.5-12.1,12c-2.3-6.2-5.9-10-12.4-11.8c6.3-2.2,10.4-5.4,12.2-12.7
			C266.9,40.9,270.6,44.6,277,46.4z"/>
		<path class="st5" d="M225.8,54.2c-0.1,3.5-2.7,5.7-6.3,5.5c-3.5-0.2-5.8-2.7-5.6-6.2c0.2-3.5,2.9-5.9,6.3-5.7
			C223.6,48,226,50.7,225.8,54.2z"/>
		<path class="st6" d="M467.8,192c0,3.4-2.5,6-6,6c-3.5,0-6-2.5-6-6c0-3.5,2.6-6.1,6-6.1C465.1,186,467.7,188.6,467.8,192z"/>
		<path class="st3" d="M67.2,407.9c3.4,0.1,5.9,2.8,5.8,6.3c-0.1,3.5-2.6,5.8-6.2,5.8c-3.5-0.1-5.9-2.6-5.8-6.1
			C61.2,410.3,63.9,407.8,67.2,407.9z"/>
		<path class="st7" d="M231.7,122.3c59.3,0,118.5,0.1,177.8-0.1c4.3,0,5.2,1.3,5,5.2c-0.3,8.5-0.3,17,0,25.5c0.1,3.6-1,4.5-4.5,4.5
			c-56.7-0.1-113.4-0.1-170.1-0.1c-6.6,0-12.7,1.1-17.7,5.7c-5.1,4.7-7.1,10.7-7.1,17.5c0,12.1-0.1,24.3,0.1,36.4
			c0,3-0.8,3.7-3.7,3.7c-15-0.1-30-0.1-45-0.1c-9.1,0-13.4,4.3-13.4,13.3c0,23.3,0,46.7,0,70c0,8.7,4.5,13.1,13.2,13.1
			c14.9,0,29.7,0.1,44.6-0.1c3.5,0,5,0.8,4.4,4.4c-0.1,0.7-0.1,1.5,0,2.3c0.8,4.3-1.2,4.8-5,4.8c-40.6-0.1-81.2-0.1-121.9-0.1
			c-11.8,0-23.6-0.1-35.5,0.1c-3,0-3.8-0.8-3.8-3.7c0.1-66.2,0.1-132.5,0-198.7c0-3.8,1.7-3.6,4.3-3.6
			C112.8,122.3,172.2,122.3,231.7,122.3z"/>
		<path class="st7" d="M242.9,308.8c0-39.7,0.1-79.4-0.1-119.1c0-4.1,1.1-4.8,5-4.8c53.6,0.1,107.3,0.2,160.9,0
			c4.6,0,5.4,1.3,5.3,5.5c-0.3,14.8-0.2,29.7,0,44.6c0.1,3.9-1.1,4.7-4.8,4.7c-11.4-0.2-22.7,0-34.1-0.1c-5.7-0.1-10.8,1.2-15.3,4.7
			c-2,1.6-4.1,1.5-6.4,1.5c-27.9,0-55.8,0-83.7,0c-10.9,0-14.8,3.9-14.8,14.7c0,7.1,0,14.2,0,21.4c0,9.5,4.3,13.9,13.9,13.9
			c25.5,0.1,50.9,0.1,76.4-0.1c4.1,0,5.1,1.1,4.9,5c-0.3,7.8-0.1,7.8-8,7.8c-24.2,0-48.5,0-72.7,0c-10.5,0-14.5,4-14.5,14.6
			c0,7,0,13.9,0,20.9c0,10.4,4.2,14.5,14.7,14.5c21.1,0,42.1,0,63.2,0c4.7,0,9.4,0.1,14.1,0c2.2-0.1,3.2,0.5,3.2,3
			c0.4,9.8,0.5,9.8-9.2,9.8c-23.5,0-47,0-70.5,0c-11.9,0-15.5,3.6-15.5,15.3c0,6.8,0,13.6,0,20.5c0,9.9,4.2,14.2,14.1,14.2
			c25,0,50,0,75,0.1c2,0,5.1-1.3,5.7,1c0.8,3.3,0.4,6.9,0.1,10.3c-0.1,1.2-1.8,0.8-2.8,0.8c-33.8,0-67.6,0-101.4,0.1
			c-3.8,0-2.7-2.4-2.7-4.2c0-30.5,0-60.9,0-91.4C242.9,328.2,242.9,318.5,242.9,308.8z"/>
		<path class="st7" d="M123.5,337.3c29.1,0,58.2,0.1,87.3-0.1c3.5,0,4.6,0.9,4.5,4.5c-0.2,13.2-0.2,26.4,0,39.5
			c0,3.1-0.4,4.5-4.1,4.5c-53.8-0.1-107.6-0.1-161.4-0.1c-11.8,0-18.6-6.9-18.6-18.7c0-8.5,0.2-17-0.1-25.5
			c-0.1-3.4,0.7-4.3,4.2-4.3C64.7,337.4,94.1,337.3,123.5,337.3z"/>
		<path class="st8" d="M355,452.1c-29.5,0-58.3,0.1-87.1,0c-10.7,0-21.5,0.5-32.2-0.4c-5.7-0.5-9.8-4.1-10.9-9.8
			c-0.4-1.9-0.4-3.9-0.4-5.9c0-84.6,0-169.1,0-253.7c0-11.6,4.4-16,15.9-16c58.8,0,117.6,0,176.4,0c11.4,0,15.7,4.2,15.8,15.6
			c0.1,17.9-0.1,35.8,0.1,53.6c0,3.8-1.5,4.1-4.5,4c-2.9-0.1-5,0.2-5-4.1c0.3-16.8,0.1-33.6,0.1-50.5c0-7.3-1.9-9.1-9.1-9.1
			c-57,0-114,0-170.9,0c-7.6,0-9.2,1.6-9.2,8.9c0,82.9,0,165.8,0,248.7c0,7.5,1.6,9.1,9,9.1c33.6,0,67.3,0.1,100.9-0.1
			c4.5,0,8,0.2,9,5.5C352.9,449.2,354,450.3,355,452.1z"/>
		<path class="st8" d="M432.3,160.6c-8.9-3.4-8.9-3.4-8.9-11.9c0-15.5,0-30.9,0-46.4c0-8-2.7-10.7-10.5-10.7
			c-120.8,0-241.6,0-362.3,0c-7.8,0-10.5,2.7-10.5,10.8c0,73.5,0,147,0,220.5c0,5-3,7-7.7,5.3c-1.1-0.4-1.2-1.2-1.2-2.1
			c0-1.1,0-2.1,0-3.2c0-73.3,0-146.7,0-220c0-13.8,6.4-20.2,20.4-20.2c120.2,0,240.4,0.1,360.5-0.1c14,0,20.8,8.8,20.4,20.4
			C431.9,122,432.3,141.1,432.3,160.6z"/>
		<path class="st8" d="M478.6,350.2c0,28.2,0,56.3,0,84.5c0,11.2-5.7,17.2-16.9,17.3c-27.7,0.1-55.4,0.1-83.2,0
			c-2.4,0-4.8-0.2-7.2-0.5c-5.8-0.7-11.1-6-11.9-12.1c-0.2-1.6-0.2-3.3-0.2-5c0-56.2,0-112.4,0-168.6c0-2.4-0.1-4.8,0.7-7.2
			c2.1-6.2,7.5-10.1,14.6-10.1c29.5,0,59.1-0.1,88.6,0c9.5,0,15.5,6.2,15.5,15.8C478.7,293,478.6,321.6,478.6,350.2z"/>
		<path class="st8" d="M246.8,113.2c-54.4,0-108.8,0-163.2,0.1c-3.9,0-5.5-0.7-5.3-5.1c0.4-7.6,0.1-7.7,7.6-7.7
			c107.4,0,214.8,0,322.2,0c6.9,0,6.1-0.9,6.1,5.9c0,6.7,0,6.7-6.7,6.7C354,113.2,300.4,113.2,246.8,113.2z"/>
		<path class="st9" d="M215.2,269.2c0,11.7-0.1,23.3,0.1,35c0,3.1-0.9,3.7-3.8,3.7c-14.8-0.1-29.7-0.1-44.5,0c-3.5,0-4.8-1-4.8-4.6
			c0.1-23,0.1-46.1,0-69.1c0-3.7,1.4-4.6,4.8-4.6c14.8,0.1,29.7,0.1,44.5,0c2.9,0,3.8,0.7,3.8,3.7
			C215.1,245.3,215.2,257.2,215.2,269.2z"/>
		<path class="st10" d="M308.4,254.8c13,0,26.1,0,39.1,0c2.6,0,3.9-0.1,3.2,3.6c-1.5,7.9-0.6,16-0.5,24c0,3.4-0.9,4.3-4.3,4.3
			c-25.5-0.1-50.9-0.1-76.4,0c-4.1,0-5.7-1.3-5.5-5.5c0.3-6.8,0.3-13.6,0-20.5c-0.2-4.5,1.1-6.1,5.8-6
			C282.7,255,295.5,254.8,308.4,254.8z"/>
		<path class="st9" d="M307.7,349.4c-12.7,0-25.4-0.1-38.2,0.1c-4,0.1-5.7-1.2-5.6-5.5c0.3-7.3,0.2-14.5,0-21.8
			c-0.1-3.2,0.9-4.7,4.4-4.7c26.2,0.1,52.4,0.1,78.6,0c2.3,0,3.2,0.7,3.2,3.1c-0.1,8.3-0.2,16.7,0,25c0.1,3-0.9,3.9-3.8,3.9
			C333.4,349.3,320.6,349.4,307.7,349.4z"/>
		<path class="st11" d="M307.7,380.3c12.9,0,25.7,0.1,38.6-0.1c2.9,0,4,0.8,3.9,3.8c-0.2,8.2-0.2,16.4,0,24.5
			c0.1,2.8-0.9,3.6-3.6,3.6c-25.9-0.1-51.8-0.1-77.7,0c-3.4,0-4.9-1.1-4.8-4.8c0.2-7.6,0.2-15.1,0-22.7c-0.1-3.5,1.4-4.5,4.6-4.4
			C281.6,380.4,294.6,380.3,307.7,380.3z"/>
		<path class="st12" d="M219,452.1c-7.9,0-14.9,0-22,0c-12.4,0-24.9,0-37.3,0c-4.7,0-7.3-2.2-7.3-5.6c0-3.4,2.7-5.5,7.4-5.5
			c17.3,0,34.6,0,51.8-0.1c2.6,0,3.9,0.5,4.1,3.3C216,446.7,217.4,449,219,452.1z"/>
		<path class="st13" d="M215.2,413.2c0,5.1-0.1,10.3,0,15.4c0.1,2.3-0.5,3.2-3,3.1c-4.7-0.2-9.4-0.1-14.1,0c-2,0.1-2.6-0.7-2.6-2.6
			c0.1-10.6,0.1-21.2,0-31.8c0-2.3,0.9-2.8,3-2.7c4.5,0.1,9.1,0.2,13.6,0c2.4-0.1,3.1,0.8,3.1,3.1
			C215.1,403,215.2,408.1,215.2,413.2z"/>
		<path class="st14" d="M59.3,113.2c-0.5,0-0.9,0-1.4,0c-9.6,0-10.2-0.8-8.8-10.4c0.2-1.4,0.6-2.2,2.1-2.2c5.3,0,10.6,0,15.9,0
			c1.2,0,2.1,0.2,2.1,1.6c0,3,0,6.1,0,9.1c0,1.7-1,1.9-2.3,1.9C64.5,113.2,61.9,113.2,59.3,113.2z"/>
		<path d="M142.1,268.7c0,11.7,0,23.3,0,35c0,8.7-4.4,13.2-13.1,13.2c-18,0-36.1,0-54.1,0c-8.4,0-12.8-4.5-12.8-13
			c0-23.5,0-47,0-70.5c0-8.4,4.5-12.9,12.8-12.9c18.2,0,36.4,0,54.6,0c8.1,0,12.6,4.6,12.6,12.7
			C142.2,245.1,142.1,256.9,142.1,268.7z"/>
		<path class="st15" d="M83,135c1.8,0,3.6-0.1,5.4,0c2.8,0.2,4.6,1.8,4.5,4.6c-0.1,2.8-1.9,4.4-4.7,4.4c-3.5,0.1-6.9,0.1-10.4,0
			c-2.8-0.1-4.7-1.6-4.7-4.4c-0.1-3.1,1.9-4.6,4.9-4.7C79.7,135,81.3,135,83,135z"/>
		<path class="st15" d="M114.9,144.1c-2,0-3.9,0.2-5.9,0c-2.6-0.3-4.1-1.9-4.1-4.5c0.1-2.6,1.7-4.3,4.2-4.4
			c3.6-0.2,7.2-0.1,10.8-0.1c2.8,0,4.7,1.6,4.7,4.4c0.1,3.1-1.9,4.6-4.9,4.7C118.2,144.2,116.5,144.1,114.9,144.1
			C114.9,144.1,114.9,144.1,114.9,144.1z"/>
		<path class="st15" d="M146.6,144.1c-2,0-3.9,0.2-5.9-0.1c-2.5-0.4-4.1-2-4-4.7c0.1-2.4,1.6-4.1,3.9-4.2c3.9-0.2,7.8-0.2,11.7,0
			c2.6,0.1,4.2,1.8,4.2,4.4c0,2.6-1.6,4.2-4.2,4.5C150.5,144.3,148.5,144.1,146.6,144.1C146.6,144.1,146.6,144.1,146.6,144.1z"/>
		<path class="st15" d="M330.1,205.9c-1.8,0-3.6,0.1-5.4,0c-2.6-0.3-4.2-1.8-4.2-4.4c-0.1-2.6,1.5-4.4,4.1-4.5
			c3.9-0.2,7.8-0.2,11.7,0c2.5,0.2,4.1,1.9,4,4.6c-0.1,2.6-1.7,4.1-4.3,4.3C334.1,206.1,332.1,205.9,330.1,205.9z"/>
		<path class="st15" d="M298.6,196.9c1.8,0,3.6-0.1,5.4,0c2.8,0.2,4.5,1.8,4.4,4.7c-0.1,2.6-1.7,4.2-4.3,4.3
			c-3.6,0.2-7.2,0.1-10.9,0c-2.8-0.1-4.6-1.6-4.7-4.5c0-2.8,1.7-4.4,4.5-4.6C295,196.8,296.8,196.9,298.6,196.9z"/>
		<path class="st15" d="M266.8,205.9c-2,0-3.9,0.2-5.9,0c-2.6-0.3-4.1-1.9-4.1-4.5c0-2.6,1.6-4.3,4.2-4.4c3.6-0.2,7.2-0.1,10.8-0.1
			c2.8,0,4.7,1.5,4.8,4.4c0.1,3.1-1.9,4.6-4.9,4.7C270.1,206,268.4,206,266.8,205.9C266.8,206,266.8,205.9,266.8,205.9z"/>
		<path d="M470.5,350.5c0,26.8,0,53.6,0,80.5c0,9.5-3.6,13.1-13.3,13.1c-25.6,0-51.2,0-76.8,0c-9.5,0-13.3-3.7-13.3-13.1
			c0-53.8,0-107.6,0-161.4c0-9.4,3.6-12.9,12.9-12.9c5.6,0,11.2,0,16.8,0c5.2,0,9,2.2,11.2,7c2.1,4.5,5.5,7.1,10.6,7.2
			c5.3,0.1,8.8-2.6,11-7.2c2.2-4.7,6-7,11.2-7c6.1,0,12.1-0.1,18.2,0c7.7,0.1,11.4,3.9,11.4,11.6
			C470.5,295.6,470.5,323.1,470.5,350.5z"/>
		<path class="st2" d="M133,268.9c0,11.5-0.1,23,0.1,34.5c0,3.3-1,4.6-4.4,4.5c-17.7-0.1-35.4-0.1-53.1,0c-3.4,0-4.4-1.3-4.4-4.6
			c0.1-23,0.1-46,0-69c0-3.5,1-4.8,4.7-4.8c17.6,0.1,35.1,0.1,52.7,0c3.7,0,4.7,1.3,4.6,4.8C132.9,245.9,133,257.4,133,268.9z"/>
		<path class="st7" d="M461.4,350.1c0,26.7-0.1,53.3,0.1,80c0,3.6-0.7,5-4.7,4.9c-25.3-0.2-50.6-0.2-75.9,0c-3.8,0-4.8-1.1-4.8-4.9
			c0.1-53.3,0.1-106.6,0-160c0-3.5,0.8-5.1,4.5-4.6c2.1,0.3,4.2,0.2,6.4,0c6.7-0.4,11.8,0.2,16.5,7c8.1,11.6,26.2,9.4,33.1-3.1
			c1.7-3,3.4-4.1,6.7-4c4.7,0.2,9.4,0.3,14.1,0c3.3-0.2,4,1.1,4,4.1C461.4,296.5,461.4,323.3,461.4,350.1z"/>
		<path d="M418.7,384.5c-8.3,0-16.7,0.1-25,0c-7.5-0.1-11.1-3.8-11.2-11.2c-0.1-3.8-0.1-7.6,0-11.4c0.3-6.1,4-10.1,10-10.1
			c17.6-0.2,35.1-0.2,52.7,0c6.3,0.1,9.8,4.1,9.9,10.6c0.1,3.9,0.1,7.9,0,11.8c-0.2,6.5-3.7,10.2-10.1,10.3
			C436.2,384.6,427.4,384.5,418.7,384.5C418.7,384.5,418.7,384.5,418.7,384.5z"/>
		<path d="M418.6,343.4c-8.2,0-16.4,0-24.5,0c-7.9,0-11.6-3.7-11.6-11.7c0-3.6-0.1-7.3,0-10.9c0.3-6.3,4.2-10.1,10.5-10.1
			c17.3-0.1,34.5-0.1,51.8,0c6.3,0,10.2,3.9,10.4,10.2c0.1,4.1,0.1,8.2,0,12.3c-0.2,6.6-3.9,10.2-10.6,10.3
			C435.9,343.4,427.3,343.4,418.6,343.4z"/>
		<path d="M418.9,393c8.2,0,16.4,0,24.5,0c8.3,0.1,11.6,3.4,11.7,11.5c0,3.6,0.1,7.3,0,10.9c-0.2,6.2-3.7,10.2-9.8,10.3
			c-17.7,0.2-35.4,0.2-53.2,0c-5.8-0.1-9.4-4.1-9.7-9.9c-0.2-4.1-0.2-8.2,0-12.3c0.2-6.6,4-10.3,10.6-10.4
			C401.7,392.9,410.3,393,418.9,393z"/>
		<path class="st15" d="M441.4,295.1c-2,0-3.9,0.2-5.9,0c-2.6-0.3-4.2-1.9-4.1-4.5c0-2.6,1.6-4.3,4.2-4.4c3.6-0.2,7.2-0.1,10.8-0.1
			c2.8,0,4.7,1.5,4.8,4.3c0.1,3.1-1.9,4.6-4.9,4.7C444.7,295.1,443.1,295.1,441.4,295.1C441.4,295.1,441.4,295.1,441.4,295.1z"/>
		<path class="st16" d="M418.9,360.8c7.9,0,15.7,0.1,23.6-0.1c2.8-0.1,3.5,0.9,3.6,3.6c0.2,11,0.3,11-10.6,11
			c-13.3,0-26.6-0.1-40,0.1c-3.1,0-4.1-0.8-4.1-4c0-10.6-0.1-10.6,10.7-10.6C407.7,360.8,413.3,360.8,418.9,360.8z"/>
		<path class="st10" d="M419.1,334.3c-8,0-16-0.1-24,0.1c-2.8,0.1-3.6-0.8-3.6-3.6c-0.2-11.1-0.3-11.1,10.6-11.1
			c13.3,0,26.6,0.1,39.9-0.1c2.9,0,4.2,0.4,4.2,3.8c-0.1,10.8,0.1,10.8-10.8,10.8C430,334.3,424.5,334.3,419.1,334.3z"/>
		<path class="st14" d="M418.7,416.8c-7.9,0-15.7-0.1-23.6,0c-2.7,0-3.6-0.8-3.7-3.6c-0.3-11.1-0.3-11.1,10.7-11.1
			c13.3,0,26.6,0.1,39.9-0.1c3.2,0,4.1,0.8,4.1,4c0,10.7,0.1,10.7-10.6,10.7C429.9,416.8,424.3,416.8,418.7,416.8z"/>
	</g>
</g>
</svg>
