<?xml version="1.0" encoding="utf-8"?>
<!-- Generator: Adobe Illustrator 25.4.1, SVG Export Plug-In . SVG Version: 6.00 Build 0)  -->
<svg version="1.1" id="Layer_1" xmlns="http://www.w3.org/2000/svg" xmlns:xlink="http://www.w3.org/1999/xlink" x="0px" y="0px"
	 viewBox="0 0 1000 500" style="enable-background:new 0 0 1000 500;" xml:space="preserve">
<style type="text/css">
	.st0{fill:#3F3F3F;}
	.st1{fill:#FEFEFE;}
	.st2{fill:#F2F4FA;}
	.st3{fill:#3B97D2;}
	.st4{fill:#A5A5A5;}
	.st5{fill:#79797A;}
	.st6{fill:#7A7A7B;}
	.st7{fill:#010304;}
	.st8{fill:#010203;}
</style>
<g>
	<g>
		<path d="M45.2-86.4l-11.6-40.8H44c2.4,9.4,6.5,24.6,7.4,31.9h0.1c1.3-7.5,5.5-22.4,8.3-31.9h9.4c2.6,9,7.1,25.7,8.2,31.6h0.1
			c1.2-7.4,5.2-22.5,7.5-31.6h10L82.8-86.4H72c-2.6-9-6.8-24.6-8.1-30.4h-0.1c-1.2,6.9-5.1,20.4-8,30.4H45.2z"/>
		<path d="M107.3-99c0.2,3.6,2.9,6.4,7.4,6.4c3.6,0,5.3-1.1,6.4-2.9h9.5c-1.8,5.3-6.3,10-15.9,10c-12.3,0-16.7-8.1-16.7-15.8
			c0-8.4,5.7-15.8,16.6-15.8c11.7,0,16.4,8,16.4,15.8c0,0.8,0,1.3-0.1,2.3H107.3z M121.3-104.8c-0.2-2.3-1.4-5.7-6.8-5.7
			c-5,0-6.8,2.7-7.1,5.7H121.3z"/>
		<path d="M136.9-129.5h9.5v16.4c1.5-1.8,4.3-4,9.9-4c8.1,0,14.6,6.3,14.6,15.2c0,10.3-6.8,16.4-15.2,16.4c-5.7,0-8.3-2.1-9.7-4.2
			c0,0.8-0.1,2.7-0.1,3.4h-9.1c0.1-4.3,0.1-6.7,0.1-10V-129.5z M161.2-101.5c0-4.2-2.2-8.3-7.4-8.3c-5.2,0-7.6,3.4-7.6,8.4
			c0,4.8,2.5,8.4,7.5,8.4C158.7-93,161.2-96.8,161.2-101.5z"/>
		<path d="M194.8-127.2h18.5c13.8,0,21.3,8.9,21.3,19.7c0,13.1-9.6,21.1-21.5,21.1h-18.3V-127.2z M204.7-94h7
			c8,0,12.3-4.5,12.3-13.2c0-7.6-4-12.2-12.2-12.3h-7.2V-94z"/>
		<path d="M249-99c0.2,3.6,2.9,6.4,7.4,6.4c3.6,0,5.3-1.1,6.4-2.9h9.5c-1.8,5.3-6.3,10-15.9,10c-12.3,0-16.7-8.1-16.7-15.8
			c0-8.4,5.7-15.8,16.6-15.8c11.7,0,16.4,8,16.4,15.8c0,0.8,0,1.3-0.1,2.3H249z M263-104.8c-0.2-2.3-1.4-5.7-6.8-5.7
			c-5,0-6.8,2.7-7.1,5.7H263z"/>
		<path d="M284.9-116.3c4.1,11.6,6.7,18.1,7.7,21.8h0.1c1.1-3.7,3.2-9.5,7.6-21.8h9.6l-12.4,30h-10.6l-12.3-30H284.9z"/>
		<path d="M321.9-99c0.2,3.6,2.9,6.4,7.4,6.4c3.6,0,5.3-1.1,6.4-2.9h9.5c-1.8,5.3-6.3,10-15.9,10c-12.3,0-16.7-8.1-16.7-15.8
			c0-8.4,5.7-15.8,16.6-15.8c11.7,0,16.4,8,16.4,15.8c0,0.8,0,1.3-0.1,2.3H321.9z M335.9-104.8c-0.2-2.3-1.4-5.7-6.8-5.7
			c-5,0-6.8,2.7-7.1,5.7H335.9z"/>
		<path d="M351.5-86.4v-43.2h9.5v43.2H351.5z"/>
		<path d="M401.6-101.4c0,9.2-6.4,15.8-17.5,15.8c-11.2,0-16.9-7.5-16.9-15.8c0-8.2,5.9-15.8,17.3-15.8
			C396.2-117.1,401.6-108.8,401.6-101.4z M376.9-101.4c0,4.7,2.6,8.7,7.5,8.7c5.1,0,7.4-3.9,7.4-8.5c0-4.5-2.2-8.8-7.5-8.8
			C379.2-110,376.9-106,376.9-101.4z"/>
		<path d="M417.4-89.3v15.5h-9.5V-109c0-2.4,0-4.9-0.1-7.4h9.3c0.1,0.6,0.2,2.6,0.2,3.9c1.7-2.5,4.7-4.7,10.4-4.7
			c7.7,0,14.1,6.4,14.1,15.2c0,10.4-7.5,16.4-15.3,16.4C421.7-85.5,418.8-87.4,417.4-89.3z M432.2-101.4c0-4.4-2.5-8.4-7.4-8.4
			c-5.5,0-7.6,3.5-7.6,8.5c0,5.1,2.6,8.3,7.5,8.3C429.5-93,432.2-96.4,432.2-101.4z"/>
		<path d="M448.2-108.6c0-2.6,0-5.1-0.1-7.7h9.1c0.2,1.2,0.2,2.5,0.3,3.5c1.6-2.2,4.4-4.4,9.1-4.4c5.3,0,7.9,2.3,9,4.9
			c1.6-2.2,4.3-4.9,10.1-4.9c6.3,0,11.2,3.7,11.2,12.7v18.1h-9.3v-17.9c0-2.6-0.9-5.7-4.8-5.7c-3.4,0-5.5,2.1-5.5,7.1v16.5h-9.4
			v-17.9c0-3-1.1-5.7-4.9-5.7c-3.8,0-5.5,2.8-5.5,7.1v16.5h-9.4V-108.6z"/>
		<path d="M512.6-99c0.2,3.6,2.9,6.4,7.4,6.4c3.6,0,5.3-1.1,6.4-2.9h9.5c-1.8,5.3-6.3,10-15.9,10c-12.3,0-16.7-8.1-16.7-15.8
			c0-8.4,5.7-15.8,16.6-15.8c11.7,0,16.4,8,16.4,15.8c0,0.8,0,1.3-0.1,2.3H512.6z M526.6-104.8c-0.2-2.3-1.4-5.7-6.8-5.7
			c-5,0-6.8,2.7-7.1,5.7H526.6z"/>
		<path d="M542.2-108.8c0-2.5,0-5.4-0.1-7.6h9.3c0.1,0.8,0.2,2.7,0.3,3.9c1.4-2.1,4.1-4.7,9.9-4.7c7.4,0,11.7,4.6,11.7,12.3v18.5
			h-9.6v-17c0-3.4-1.3-6.4-5.6-6.4c-4.4,0-6.5,3.1-6.5,8.5v15h-9.5V-108.8z"/>
		<path d="M578.3-116.3h5.4v-8.8h9.5v8.8h6.9v6.9h-6.9v12.6c0,2.6,0.5,3.7,3.4,3.7c0.8,0,1.7,0,2.6-0.2v6.5c-1.6,0.5-3.8,0.7-6,0.7
			c-7.4,0-9.5-3.2-9.5-9v-14.3h-5.4V-116.3z"/>
	</g>
</g>
<g>
	<g>
		<path class="st0" d="M34.3,267.1l-9.8-42.5h8.9c3.6,19.5,5.2,28.2,5.7,32.9h0.1c1.5-7.8,5.2-22.6,7.4-32.9H54
			c2,8.2,5.9,24.6,7.1,32.4h0.1c1.3-9.4,5.1-25.8,6.4-32.4h8.1l-10.4,42.5h-8.6c-2-9.4-5.4-23.1-6.8-30.4h-0.1
			c-1.4,7.6-4.9,21.9-6.9,30.4H34.3z"/>
		<path class="st0" d="M86.6,253c0,4,1.8,7.9,5.8,7.9c3.3,0,4.3-1.5,5-3.4h8c-1,3.9-4.2,10.3-13.2,10.3c-9.5,0-13.6-7.9-13.6-16.2
			c0-10,4.6-17.2,13.9-17.2c9.9,0,13.3,7.9,13.3,15.9c0,1.1,0,1.8-0.1,2.7H86.6z M97.7,247.6c-0.1-3.7-1.4-6.8-5.3-6.8
			c-3.8,0-5.4,2.9-5.7,6.8H97.7z"/>
		<path class="st0" d="M111.2,222.1h8v16.5c1.2-2.1,3.6-4.1,8.3-4.1c7.9,0,11.8,7.2,11.8,16.1c0,9.1-4.3,17.3-12.6,17.3
			c-4.3,0-6.2-1.4-7.6-3.8c0,1-0.2,2.2-0.3,3h-7.6c0.1-3.5,0.1-7,0.1-10.4V222.1z M131.1,250.7c0-5.3-1.8-9.2-6.1-9.2
			c-4.6,0-6.2,3.3-6.2,9.8c0,5.4,1.4,9.5,6.1,9.5C129,260.8,131.1,256.7,131.1,250.7z"/>
		<path class="st0" d="M159.2,224.6h15.3c11.2,0,18.5,8.1,18.5,20.7c0,12.4-7.1,21.8-18.9,21.8h-14.9V224.6z M167.5,259.6h6.2
			c7.4,0,10.6-6.1,10.6-14.3c0-6.9-3.1-13.3-10.6-13.3h-6.3V259.6z"/>
		<path class="st0" d="M205.6,253c0,4,1.8,7.9,5.8,7.9c3.3,0,4.3-1.5,5-3.4h8c-1,3.9-4.2,10.3-13.2,10.3c-9.5,0-13.6-7.9-13.6-16.2
			c0-10,4.6-17.2,13.9-17.2c9.9,0,13.3,7.9,13.3,15.9c0,1.1,0,1.8-0.1,2.7H205.6z M216.8,247.6c-0.1-3.7-1.4-6.8-5.3-6.8
			c-3.8,0-5.4,2.9-5.7,6.8H216.8z"/>
		<path class="st0" d="M235.6,235.2c2.8,10.8,5,20.3,5.6,24.1h0.1c0.8-5.3,3.6-14.9,6.2-24.1h8l-10.2,31.9h-8.4l-9.8-31.9H235.6z"/>
		<path class="st0" d="M265.7,253c0,4,1.8,7.9,5.8,7.9c3.3,0,4.3-1.5,5-3.4h8c-1,3.9-4.2,10.3-13.2,10.3c-9.5,0-13.6-7.9-13.6-16.2
			c0-10,4.6-17.2,13.9-17.2c9.9,0,13.3,7.9,13.3,15.9c0,1.1,0,1.8-0.1,2.7H265.7z M276.9,247.6c-0.1-3.7-1.4-6.8-5.3-6.8
			c-3.8,0-5.4,2.9-5.7,6.8H276.9z"/>
		<path class="st0" d="M290.3,267.1v-45h8v45H290.3z"/>
		<path class="st0" d="M332.4,251c0,9.7-5.2,16.8-14.4,16.8c-9,0-14.2-7.1-14.2-16.6c0-9.8,5.4-16.8,14.6-16.8
			C326.9,234.4,332.4,241,332.4,251z M311.9,251.1c0,6.1,2.4,9.8,6.2,9.8c3.9,0,6.1-3.6,6.1-9.7c0-6.7-2.2-9.8-6.2-9.8
			C314.3,241.3,311.9,244.4,311.9,251.1z"/>
		<path class="st0" d="M345.8,264.2v15h-7.9v-36.4c0-2.6,0-5.1-0.1-7.7h7.7c0.1,0.8,0.3,2.8,0.3,4c1.2-2.3,3.8-4.7,8.4-4.7
			c6.5,0,11.5,6,11.5,15.9c0,11.3-5.6,17.5-12.6,17.5C349,267.8,346.9,266.1,345.8,264.2z M357.6,250.6c0-5.8-2.1-9.1-5.9-9.1
			c-4.5,0-6.2,3.2-6.2,9.6c0,6.1,1.5,9.6,5.8,9.6C355.5,260.8,357.6,257.1,357.6,250.6z"/>
		<path class="st0" d="M371.2,243.4c0-2.8,0-5.5-0.1-8.2h7.6c0.1,0.8,0.3,2.6,0.3,3.8c1.5-2.4,3.8-4.5,8-4.5c4.2,0,6.4,2.4,7.5,4.9
			c1.7-2.6,4.2-4.9,8.9-4.9c5,0,9.2,3.4,9.2,11.7v20.9h-7.8v-19.9c0-2.9-0.9-5.7-4.2-5.7c-3.4,0-4.7,2.4-4.7,7.3v18.2H388v-19.5
			c0-3.3-0.7-6-4.1-6c-3.2,0-4.8,2.2-4.8,7.7v17.8h-7.9V243.4z"/>
		<path class="st0" d="M426.2,253c0,4,1.8,7.9,5.8,7.9c3.3,0,4.3-1.5,5-3.4h8c-1,3.9-4.2,10.3-13.2,10.3c-9.5,0-13.6-7.9-13.6-16.2
			c0-10,4.6-17.2,13.9-17.2c9.9,0,13.3,7.9,13.3,15.9c0,1.1,0,1.8-0.1,2.7H426.2z M437.3,247.6c-0.1-3.7-1.4-6.8-5.3-6.8
			c-3.8,0-5.4,2.9-5.7,6.8H437.3z"/>
		<path class="st0" d="M450.8,243.2c0-2.7,0-5.7-0.1-8h7.7c0.2,0.8,0.3,3,0.3,4.1c1-2,3.3-4.8,8.4-4.8c5.8,0,9.6,4.3,9.6,12.3v20.3
			h-8v-19.3c0-3.6-1.1-6.2-4.6-6.2c-3.4,0-5.3,2.1-5.3,7.7v17.8h-8V243.2z"/>
		<path class="st0" d="M481,235.2h4.5v-8.6h8v8.6h5.7v6.6h-5.7v15.7c0,2.4,0.7,3.4,3.1,3.4c0.4,0,1.2,0,1.8-0.1v6.1
			c-1.6,0.6-3.8,0.6-5.4,0.6c-5.6,0-7.5-3.3-7.5-8.9v-16.8H481V235.2z"/>
	</g>
</g>
<g>
	<g>
		<path class="st1" d="M999.9,250.4c0,81.8,0,163.6,0.1,245.4c0,3.3-0.6,4-4,4c-164-0.1-327.9-0.1-491.9,0c-3.8,0-4.1-1.2-4.1-4.4
			c0.1-163.8,0.1-327.6,0-491.4c0-3.5,0.7-4.2,4.2-4.2C668,0,831.8,0,995.6-0.1c3.9,0,4.4,1.2,4.4,4.6
			C999.9,86.5,999.9,168.5,999.9,250.4z"/>
		<path d="M942,270.7c0,24.6,0,48.4,0,72.3c0,3.9,0.2,7.8-0.5,11.7c-1.8,10.6-9.9,18.4-20.6,19.7c-2.3,0.3-4.5,0.3-6.8,0.3
			c-46.5,0-93,0.1-139.6-0.1c-4.5,0-5.4,0.8-4.4,5.3c5.1,22.6,24,39,47.2,40.2c10.4,0.5,20.8,0.2,31.2,0.3c7.1,0.1,9.3,2.3,9.4,9.4
			c0.1,6.3,0,12.7,0,19c0,7.4-2.2,9.7-9.6,9.7c-14.5,0.1-29,0-43.4,0c-64.1,0-128.2,0-192.3,0c-9.8,0-11.3-1.5-11.3-11.3
			c0-6.2-0.1-12.3,0-18.5c0.1-5.8,2.4-8.2,8.3-8.3c10.7-0.2,21.5,0.2,32.2-0.3c23.1-1.1,42.2-17.6,47.2-40.2
			c0.8-3.8,0.4-5.3-4.2-5.3c-47.2,0.2-94.3,0.1-141.5,0.1c-18.6,0-27.8-9.2-27.8-27.8c0-84.6,0-169.2,0-253.7
			c0-18,9.3-27.2,27.4-27.2c10.9,0,21.8-0.2,32.7,0.1c4,0.1,5.1-1.3,4.7-4.9c-0.2-2.6-0.2-5.2,0.5-7.7c1.6-5.9,5.4-9.5,11.4-10.6
			c2.1-0.4,4.2-0.4,6.3-0.4c86.9,0,173.7,0,260.6-0.1c6.3,0,11.9,1,15.7,6.8c2.5,3.8,2.4,8.1,2.1,12.2c-0.3,3.6,0.7,4.8,4.5,4.7
			c11.5-0.3,23.1-0.2,34.6-0.1c16.1,0.1,25.8,9.8,25.9,25.8c0.1,12.2,0.1,24.4,0,36.5c0,2.4,0,4.1,3.2,3.2c2.1-0.5,3.6,1.1,5,2.5
			c6.2,6,12.3,12.1,18.5,18c3.1,2.9,3.8,5.8,1.1,9.4c-1.5,1.9-2.7,4.1-4,6.1c-4,6.2-2,11.2,5.1,12.4c13.8,2.5,13,1.6,13.1,15.7
			c0.1,6.3,0,12.7,0.2,19c0.1,3.8-1.5,6.1-5.3,6.8c-2.4,0.4-4.7,1.1-7.1,1.6c-8,1.6-10,6.3-5.4,12.9c7.9,11.3,7.4,10.1-1.8,19.6
			c-4.3,4.4-8.7,8.7-12.9,13.3C949.1,271.6,946.3,272.9,942,270.7z"/>
		<path class="st1" d="M866.4,136.5c-0.9-0.3-1.5-0.3-1.8-0.6c-9.4-6.8-9.7-4.7-16.4,2.1c-5,5.1-9.9,10.3-15,15.3
			c-2.8,2.8-3,5.5-0.8,8.7c1.4,2,2.8,4,4.1,6c4.1,6,2.2,10.9-5,12.5c-14.1,3.3-13.2,0.9-13,16.6c0.1,6.2,0.2,12.3,0.2,18.5
			c0.1,3.7,1.6,6.1,5.6,6.6c2.4,0.3,4.8,0.9,7.2,1.4c7.2,1.5,9.3,6.3,5.4,12.3c-8,12.4-8.4,10.3,2.5,20.9c3.8,3.7,7.7,7.5,11.5,11.2
			c5.5,5.3,6.1,5.3,12.4,1.2c0.8-0.5,1.6-1,3-1.8c0,8.5,0,16.4,0,24.3c0,2.4-1.3,3.6-3.6,3.7c-1.5,0.1-2.9,0.1-4.4,0.1
			c-86.4,0-172.7,0-259.1,0c-7.8,0-8.1-0.2-8.1-7.8c0-58.3,0-116.5-0.1-174.8c0-4.1,1-5.1,5-5.1c88.5,0.1,176.9,0.1,265.4,0
			c4.1,0,5.1,1.1,5,5.1C866.1,120.7,866.4,128.5,866.4,136.5z"/>
		<path class="st2" d="M931.3,264.2c0,21.3,0,42.4,0,63.5c0,2.5-0.7,3.6-3.3,3.3c-1-0.1-1.9,0-2.9,0c-130.9,0-261.9,0-392.8,0.1
			c-5.1,0-6-1.4-5.9-6.1c0.2-77.3,0.1-154.5,0.1-231.8c0-12.1,4.6-16.6,16.8-16.6c10.7,0,21.5,0.2,32.2-0.1c4-0.1,5.1,0.9,5.1,5
			c-0.2,52.3-0.1,104.5-0.1,156.8c0,17,0,34.1,0,51.1c0,11.3,5.4,16.8,16.7,16.8c87.8,0,175.7,0,263.5,0c11.1,0,16.4-5.3,16.5-16.4
			c0-7.7,0-15.5,0-24.2c3.3,3.2,2.9,6.6,3.6,9.5c2.2,9.4,2,9.4,11.9,9.4c7.3-0.1,14.6-0.2,22-0.1c4.5,0,7-1.8,7.5-6.4
			c0.2-1.9,0.9-3.8,1-5.7C923.2,267.2,925.9,264.7,931.3,264.2z"/>
		<path class="st3" d="M728.6,97.4c-44.1,0-88.1-0.1-132.2,0.1c-4.4,0-5.4-1.2-5.3-5.4c0.3-10.7,0.1-21.4,0.1-32.1
			c0-6,0.9-6.9,6.7-6.9c87.3,0,174.7,0,262,0c5.8,0,6.6,0.7,6.6,6.4c0,11.2-0.2,22.4,0.1,33.6c0.1,3.8-1.2,4.5-4.7,4.5
			C817.4,97.3,773,97.4,728.6,97.4z"/>
		<path class="st3" d="M959.2,158c-1.2,1.9-2.1,3.8-3.5,5.4c-4.2,4.9-5.2,9.9-1.3,15.4c0.5,0.8,1,1.7,1.1,2.7c1,5.5,4.5,7.6,9.8,8.4
			c8,1.1,8.1,1.3,8,9.3c0,4,1.6,8.8-0.6,11.9c-2.1,2.9-7.2,2-10.9,3.1c-0.5,0.1-1,0.2-1.4,0.4c-4.8,2-9.6,17.4-6.8,21.8
			c5.8,8.9,5.8,8.9-1.6,16.4c-6.8,6.9-6.8,7-15,1.6c-3.5-2.3-6.7-3-10.4-0.6c-0.1,0.1-0.3,0.2-0.4,0.2c-9.1,1.9-14,7.3-14,16.8
			c0,2.6-1.6,3.1-3.8,3c-4.6-0.1-9.1-0.1-13.7,0.1c-2.6,0.1-4.3-0.6-4.2-3.3c0.5-12.2-9-14.6-17.5-18c-2.8-1.1-5,0.5-7.2,2
			c-8.2,5.5-8.2,5.5-15-1.1c-7.6-7.4-7.7-7.5-1.8-16.8c1.7-2.7,2.2-5.3,0.5-8.2c-0.4-0.7-0.9-1.4-1-2.2c-1.8-8.9-7.2-13.1-16.3-13.2
			c-2.2,0-3.4-1.1-3.3-3.7c0.2-4.9,0.1-9.7-0.1-14.6c-0.1-2,0.6-3.2,2.6-3.2c10.2-0.1,15.1-5.8,17.8-15.1c1.1-3.8,1.3-6.6-1-9.9
			c-5.5-8-5.4-8,1-14.7c7.6-7.8,7.6-7.9,16.8-2c2.9,1.9,5.6,2.4,8.6,0.6c0.4-0.3,0.9-0.5,1.3-0.6c8.9-2.1,14.1-7.2,14-16.8
			c0-2.5,1.5-3.2,3.8-3.1c3.1,0.1,6.2-0.1,9.3-0.1c9.8,0,7.6-1.5,9.5,8c1.1,5.2,2.9,8.8,8.4,9.7c0.5,0.1,1,0.3,1.4,0.5
			c6.9,4.8,13,3.2,18.7-2.2c2.4-2.3,4.3-1.7,6.4,0.6c2.9,3.2,6.2,6.2,9.4,9.2C957.9,156.4,958.5,157.1,959.2,158z"/>
		<path class="st4" d="M728.8,341.8c65.5,0,131.1,0,196.6-0.1c4.5,0,6.2,0.8,6,5.7c-0.4,11.8-5,16.6-17.2,16.6
			c-123.6,0-247.2,0-370.8,0.1c-14.1,0-18-7.5-17-20.1c0.1-1.7,0.8-2.3,2.4-2.2c1.3,0.1,2.6,0,3.9,0
			C598.1,341.8,663.5,341.8,728.8,341.8z"/>
		<path class="st5" d="M729,447.8c-37.3,0-74.5-0.1-111.8,0.1c-4.1,0-5.2-1.2-5.1-5.2c0.2-11.9,0-11.9,12-11.9
			c72.4,0,144.8,0.1,217.2-0.1c4.9,0,6.4,1.2,6.2,6.2c-0.4,10.9-0.1,10.9-11.2,10.9C800.6,447.8,764.8,447.8,729,447.8z"/>
		<path class="st6" d="M675,419.7c5.7-4.7,10.7-9.2,14.6-14.8c5.6-8,9.3-16.7,10.6-26.3c0.3-2.4,0.8-3.9,3.7-3.8
			c17.2,0.1,34.5,0.1,51.7,0c1.8,0,3,0.2,3.3,2.4c2.5,17.3,10.8,31.4,25.8,42.5C747.7,419.7,711.7,419.7,675,419.7z"/>
		<path class="st2" d="M877.1,137c0-5.7,0-11.4,0-17.2c0-13.1,0.1-26.3-0.1-39.4c0-3,0.8-3.9,3.8-3.8c12,0.2,24,0,36.1,0.1
			c9.3,0.1,14.3,5.3,14.4,14.7c0.1,14.4,0.1,28.9,0,43.3c0,1.6,1.1,4.6-0.9,4.5c-2.5-0.2-6-0.4-6.9-4c-0.9-3.5-1.7-6.9-2.3-10.4
			c-0.7-4.1-3-5.8-7.1-5.7c-8.8,0.2-17.5,0.4-26.3,0.5c-4.4,0-6.5,2-7,6.3c-0.5,3.8-1.5,7.6-2.2,11.3C878,137,877.5,137,877.1,137z"
			/>
		<path d="M756,136c-0.2,0.6-0.4,1.7-0.8,2.7c-14.2,43.2-28.3,86.3-42.5,129.4c-1.6,4.7-4.4,6.7-7.7,5.3c-4.1-1.8-3.8-5.1-2.6-8.6
			c14.2-43.1,28.5-86.3,42.7-129.4c1.1-3.2,2.6-5.8,6.4-5.3C754.4,130.5,756,132.4,756,136z"/>
		<path d="M694.6,240.8c-1.8,0.1-3.1-1-4.5-2.2c-11.8-10.6-23.7-21.2-35.5-31.9c-3.8-3.4-3.8-6.3,0.1-9.8
			c11.8-10.7,23.7-21.2,35.6-31.9c2.8-2.5,5.7-3.4,8.5-0.3c2.8,3.1,1.3,5.9-1.5,8.4c-9.7,8.6-19.3,17.4-29.1,25.9
			c-2.6,2.3-2.6,3.4,0.1,5.7c9.8,8.5,19.4,17.3,29.1,25.9c2.1,1.8,3.6,3.9,2.4,6.8C698.9,239.6,697.3,240.8,694.6,240.8z"/>
		<path d="M805.7,202c0.2,2-1,3.3-2.4,4.5c-12.1,10.8-24.2,21.6-36.3,32.5c-2.7,2.4-5.7,2.8-8.1,0c-2.4-2.8-1.5-5.7,1.2-8.1
			c9.7-8.6,19.2-17.5,29.1-25.9c3.2-2.7,2.6-4-0.2-6.4c-9.7-8.4-19.2-17-28.7-25.6c-3.3-3-3.6-6.5-0.9-8.8c2.5-2.2,5.1-1.8,7.4,0.3
			c12.2,10.9,24.4,21.9,36.7,32.8C804.9,198.6,805.9,200,805.7,202z"/>
		<path d="M773.4,80.9c-20.8,0-41.6,0-62.4,0c-1.1,0-2.3,0-3.4,0c-3.7,0-6.1-1.8-6-5.5c0.1-3.4,2.4-5.2,5.8-5.2c1,0,1.9,0,2.9,0
			c42.4,0,84.8,0,127.2,0c1.3,0,2.6-0.1,3.9,0.1c3,0.4,4.8,2.3,4.9,5.2c0.1,2.9-1.7,4.9-4.7,5.3c-1.4,0.2-2.9,0.1-4.4,0.1
			C816,80.9,794.7,80.9,773.4,80.9z"/>
		<path class="st7" d="M622.3,75.6c-0.3,3.1-2,5.1-5.2,5.2c-3.2,0.1-5.3-2-5.3-5.1c-0.1-3.3,1.9-5.5,5.4-5.4
			C620.4,70.3,622.1,72.3,622.3,75.6z"/>
		<path class="st7" d="M644.9,75.4c-0.1,3.2-1.8,5.3-5,5.4c-3.4,0.1-5.5-1.9-5.5-5.3c0-3.1,2-5.2,5.2-5.2
			C642.8,70.3,644.6,72.1,644.9,75.4z"/>
		<path class="st8" d="M657,75.6c0.2-3.2,1.8-5.2,5-5.4c3.5-0.1,5.5,2,5.4,5.4c0,3.1-2,5.1-5.2,5.1C659,80.7,657.3,78.8,657,75.6z"
			/>
		<path d="M901.4,235.8c-18.9,0-34.2-15.2-34.2-34c0-18.7,15.4-34.1,34.1-34.1c18.7,0,34.1,15.4,34.2,34.1
			C935.5,220.6,920.2,235.8,901.4,235.8z"/>
		<path class="st2" d="M901.3,225.2c-13.1,0-23.5-10.4-23.4-23.5c0.1-12.7,10.5-23.2,23.2-23.3c12.9-0.1,23.6,10.5,23.6,23.4
			C924.8,214.8,914.4,225.2,901.3,225.2z"/>
	</g>
</g>
</svg>
