<?xml version="1.0" encoding="utf-8"?>
<!-- Generator: Adobe Illustrator 25.4.1, SVG Export Plug-In . SVG Version: 6.00 Build 0)  -->
<svg version="1.1" id="Layer_1" xmlns="http://www.w3.org/2000/svg" xmlns:xlink="http://www.w3.org/1999/xlink" x="0px" y="0px"
	 viewBox="0 0 1000 500" style="enable-background:new 0 0 1000 500;" xml:space="preserve">
<style type="text/css">
	.st0{fill:#3F3F3F;}
	.st1{fill:#FEFEFE;}
	.st2{fill:#A9C048;}
</style>
<g>
	<g>
		<path d="M45.2-86.4l-11.6-40.8H44c2.4,9.4,6.5,24.6,7.4,31.9h0.1c1.3-7.5,5.5-22.4,8.3-31.9h9.4c2.6,9,7.1,25.7,8.2,31.6h0.1
			c1.2-7.4,5.2-22.5,7.5-31.6h10L82.8-86.4H72c-2.6-9-6.8-24.6-8.1-30.4h-0.1c-1.2,6.9-5.1,20.4-8,30.4H45.2z"/>
		<path d="M107.3-99c0.2,3.6,2.9,6.4,7.4,6.4c3.6,0,5.3-1.1,6.4-2.9h9.5c-1.8,5.3-6.3,10-15.9,10c-12.3,0-16.7-8.1-16.7-15.8
			c0-8.4,5.7-15.8,16.6-15.8c11.7,0,16.4,8,16.4,15.8c0,0.8,0,1.3-0.1,2.3H107.3z M121.3-104.8c-0.2-2.3-1.4-5.7-6.8-5.7
			c-5,0-6.8,2.7-7.1,5.7H121.3z"/>
		<path d="M136.9-129.5h9.5v16.4c1.5-1.8,4.3-4,9.9-4c8.1,0,14.6,6.3,14.6,15.2c0,10.3-6.8,16.4-15.2,16.4c-5.7,0-8.3-2.1-9.7-4.2
			c0,0.8-0.1,2.7-0.1,3.4h-9.1c0.1-4.3,0.1-6.7,0.1-10V-129.5z M161.2-101.5c0-4.2-2.2-8.3-7.4-8.3c-5.2,0-7.6,3.4-7.6,8.4
			c0,4.8,2.5,8.4,7.5,8.4C158.7-93,161.2-96.8,161.2-101.5z"/>
		<path d="M194.8-127.2h18.5c13.8,0,21.3,8.9,21.3,19.7c0,13.1-9.6,21.1-21.5,21.1h-18.3V-127.2z M204.7-94h7
			c8,0,12.3-4.5,12.3-13.2c0-7.6-4-12.2-12.2-12.3h-7.2V-94z"/>
		<path d="M249-99c0.2,3.6,2.9,6.4,7.4,6.4c3.6,0,5.3-1.1,6.4-2.9h9.5c-1.8,5.3-6.3,10-15.9,10c-12.3,0-16.7-8.1-16.7-15.8
			c0-8.4,5.7-15.8,16.6-15.8c11.7,0,16.4,8,16.4,15.8c0,0.8,0,1.3-0.1,2.3H249z M263-104.8c-0.2-2.3-1.4-5.7-6.8-5.7
			c-5,0-6.8,2.7-7.1,5.7H263z"/>
		<path d="M284.9-116.3c4.1,11.6,6.7,18.1,7.7,21.8h0.1c1.1-3.7,3.2-9.5,7.6-21.8h9.6l-12.4,30h-10.6l-12.3-30H284.9z"/>
		<path d="M321.9-99c0.2,3.6,2.9,6.4,7.4,6.4c3.6,0,5.3-1.1,6.4-2.9h9.5c-1.8,5.3-6.3,10-15.9,10c-12.3,0-16.7-8.1-16.7-15.8
			c0-8.4,5.7-15.8,16.6-15.8c11.7,0,16.4,8,16.4,15.8c0,0.8,0,1.3-0.1,2.3H321.9z M335.9-104.8c-0.2-2.3-1.4-5.7-6.8-5.7
			c-5,0-6.8,2.7-7.1,5.7H335.9z"/>
		<path d="M351.5-86.4v-43.2h9.5v43.2H351.5z"/>
		<path d="M401.6-101.4c0,9.2-6.4,15.8-17.5,15.8c-11.2,0-16.9-7.5-16.9-15.8c0-8.2,5.9-15.8,17.3-15.8
			C396.2-117.1,401.6-108.8,401.6-101.4z M376.9-101.4c0,4.7,2.6,8.7,7.5,8.7c5.1,0,7.4-3.9,7.4-8.5c0-4.5-2.2-8.8-7.5-8.8
			C379.2-110,376.9-106,376.9-101.4z"/>
		<path d="M417.4-89.3v15.5h-9.5V-109c0-2.4,0-4.9-0.1-7.4h9.3c0.1,0.6,0.2,2.6,0.2,3.9c1.7-2.5,4.7-4.7,10.4-4.7
			c7.7,0,14.1,6.4,14.1,15.2c0,10.4-7.5,16.4-15.3,16.4C421.7-85.5,418.8-87.4,417.4-89.3z M432.2-101.4c0-4.4-2.5-8.4-7.4-8.4
			c-5.5,0-7.6,3.5-7.6,8.5c0,5.1,2.6,8.3,7.5,8.3C429.5-93,432.2-96.4,432.2-101.4z"/>
		<path d="M448.2-108.6c0-2.6,0-5.1-0.1-7.7h9.1c0.2,1.2,0.2,2.5,0.3,3.5c1.6-2.2,4.4-4.4,9.1-4.4c5.3,0,7.9,2.3,9,4.9
			c1.6-2.2,4.3-4.9,10.1-4.9c6.3,0,11.2,3.7,11.2,12.7v18.1h-9.3v-17.9c0-2.6-0.9-5.7-4.8-5.7c-3.4,0-5.5,2.1-5.5,7.1v16.5h-9.4
			v-17.9c0-3-1.1-5.7-4.9-5.7c-3.8,0-5.5,2.8-5.5,7.1v16.5h-9.4V-108.6z"/>
		<path d="M512.6-99c0.2,3.6,2.9,6.4,7.4,6.4c3.6,0,5.3-1.1,6.4-2.9h9.5c-1.8,5.3-6.3,10-15.9,10c-12.3,0-16.7-8.1-16.7-15.8
			c0-8.4,5.7-15.8,16.6-15.8c11.7,0,16.4,8,16.4,15.8c0,0.8,0,1.3-0.1,2.3H512.6z M526.6-104.8c-0.2-2.3-1.4-5.7-6.8-5.7
			c-5,0-6.8,2.7-7.1,5.7H526.6z"/>
		<path d="M542.2-108.8c0-2.5,0-5.4-0.1-7.6h9.3c0.1,0.8,0.2,2.7,0.3,3.9c1.4-2.1,4.1-4.7,9.9-4.7c7.4,0,11.7,4.6,11.7,12.3v18.5
			h-9.6v-17c0-3.4-1.3-6.4-5.6-6.4c-4.4,0-6.5,3.1-6.5,8.5v15h-9.5V-108.8z"/>
		<path d="M578.3-116.3h5.4v-8.8h9.5v8.8h6.9v6.9h-6.9v12.6c0,2.6,0.5,3.7,3.4,3.7c0.8,0,1.7,0,2.6-0.2v6.5c-1.6,0.5-3.8,0.7-6,0.7
			c-7.4,0-9.5-3.2-9.5-9v-14.3h-5.4V-116.3z"/>
	</g>
</g>
<g>
	<g>
		<path class="st0" d="M514.6,281.7l-6.5,21.3h-17.7l28.3-92.2h22.7l29.6,92.2h-19l-6.9-21.3H514.6z M541.2,265.3
			c-5.9-19.5-9.7-31.9-11.7-40.2h-0.1c-2.1,9.1-6.2,23.5-11,40.2H541.2z"/>
		<path class="st0" d="M580.2,251.2c0-5.9,0-12.3-0.1-17.4h16.8c0.3,1.8,0.6,6.6,0.7,8.8c2.1-4.3,7.2-10.4,18.2-10.4
			c12.6,0,20.8,9.4,20.8,26.8v44h-17.3v-41.9c0-7.8-2.3-13.4-10-13.4c-7.4,0-11.6,4.5-11.6,16.7v38.6h-17.3V251.2z"/>
		<path class="st0" d="M709.3,205.4v78.6c0,6.3,0,12.7,0.1,19h-16.7c-0.3-2.1-0.7-5.7-0.8-7.2c-3,5.4-8.4,8.8-17.8,8.8
			c-15.8,0-25.9-14.1-25.9-35.6c0-21.3,10.7-36.8,28.4-36.8c9,0,13.9,3.5,15.2,6.6v-33.4H709.3z M666.1,268.4
			c0,13.5,4.8,20.8,13.2,20.8c11.9,0,13.3-11,13.3-20.9c0-11.8-1.5-20.8-12.8-20.8C670.7,247.5,666.1,255.3,666.1,268.4z"/>
		<path class="st0" d="M718.4,252.5c0-6.9,0-13-0.1-18.8h17c0.2,1.6,0.5,8.4,0.5,12.1c2.8-7.9,9.4-13.7,20.1-13.8v18.3
			c-12.6-0.4-20.1,3.4-20.1,22.4v30.2h-17.3V252.5z"/>
		<path class="st0" d="M824.3,268.2c0,20.9-11.3,36.3-31.2,36.3c-19.4,0-30.8-15.3-30.8-36c0-21.4,11.7-36.4,31.6-36.4
			C812.4,232.1,824.3,246.5,824.3,268.2z M780,268.3c0,13.3,5.2,21.2,13.5,21.2c8.5,0,13.2-7.9,13.2-21.1c0-14.5-4.8-21.3-13.5-21.3
			C785.2,247.1,780,253.7,780,268.3z"/>
		<path class="st0" d="M836.2,205.4h17.3v17.1h-17.3V205.4z M836.2,233.7h17.3v69.2h-17.3V233.7z"/>
		<path class="st0" d="M926.6,205.4v78.6c0,6.3,0,12.7,0.1,19h-16.7c-0.3-2.1-0.7-5.7-0.8-7.2c-3,5.4-8.4,8.8-17.8,8.8
			c-15.8,0-25.9-14.1-25.9-35.6c0-21.3,10.7-36.8,28.4-36.8c9,0,13.9,3.5,15.2,6.6v-33.4H926.6z M883.4,268.4
			c0,13.5,4.8,20.8,13.2,20.8c11.9,0,13.3-11,13.3-20.9c0-11.8-1.5-20.8-12.8-20.8C888,247.5,883.4,255.3,883.4,268.4z"/>
	</g>
</g>
<g>
	<g>
		<path class="st1" d="M314.7,35.2c45.8,0,91.6,0,137.3-0.1c2.9,0,3.4,0.6,3.4,3.4c-0.1,141-0.1,281.9,0,422.9
			c0,2.9-0.6,3.4-3.4,3.4c-141-0.1-281.9-0.1-422.9,0c-2.9,0-3.4-0.6-3.4-3.4c0.1-141,0.1-281.9,0-422.9c0-2.9,0.6-3.4,3.4-3.4
			c46.1,0.1,92.1,0.1,138.2,0.1c-2.5,4.3-0.9,8,1.5,11.9c3.9,6.6,7.6,13.3,11.2,20.1c4.3,8.1,4.3,8-3.5,13.3
			c-17.4,11.8-31,27.1-40.5,46c-4.1,8.1-6.9,16.8-8.9,25.6c-1.4,6.2,1.7,10.4,8.1,10.9c1.5,0.1,3.1,0.1,4.6,0.1
			c67.2,0,134.5,0,201.7,0c1.1,0,2.2,0,3.3,0c7.7-0.3,11.1-4.7,9.2-12.2c-7.8-30.7-24.7-54.9-51.6-71.9c-5-3.2-5.3-4.2-2.3-9.4
			c4.8-8.5,9.3-17.2,14.3-25.6C316.4,40.8,314.9,38.1,314.7,35.2z"/>
		<path class="st2" d="M314.7,35.2c3.1,2.8,2.8,5.8,0.8,9.3c-5.2,9-10.1,18.3-15.3,27.4c-1.5,2.5-1.1,3.7,1.3,5.2
			c16.2,9.7,29.2,22.6,39.2,38.7c7.2,11.6,12.2,24.1,15.1,37.4c1.1,5.2-2,9.9-7.3,10.8c-1.5,0.3-3.1,0.2-4.6,0.2
			c-68.8,0-137.6,0-206.4,0c-10.4,0-13.8-4.5-11.2-14.5c8.1-31.3,25.9-55.5,53.4-72.5c2.7-1.7,2.8-3,1.3-5.6
			c-5.3-9.2-10.3-18.5-15.5-27.7c-2-3.5-1.8-6.3,1.7-8.6c1.1,0,2.2,0,3.3,0c2.2,1.1,3.8,2.7,4.9,4.9c4.4,8.6,9.4,16.8,13.8,25.3
			c1.5,3,3.2,3.7,6.3,2.3c9.1-3.9,18.7-6.5,28.6-7.7c20-2.5,39.5-0.8,58.3,6.5c7.2,2.8,7.1,2.8,10.8-3.9c4.3-7.9,8.9-15.8,13.1-23.8
			c1.1-2,2.7-3,4.7-3.7C312.5,35.2,313.6,35.2,314.7,35.2z"/>
		<path class="st1" d="M311.4,35.2c-1.8,1.2-3,2.8-4,4.7c-5,9.2-10.2,18.3-15.1,27.5c-1.4,2.5-2.5,3.4-5.4,2.1
			c-18.4-8.2-37.7-10.7-57.6-9c-11.8,1-23.4,3.8-34.2,8.8c-2.9,1.3-4.3,0.8-5.8-2c-4.7-9-9.8-17.8-14.6-26.8c-1.1-2-2.5-3.7-3.9-5.4
			C217.6,35.2,264.5,35.2,311.4,35.2z"/>
		<path class="st2" d="M241.3,176.7c35,0,70,0,105.1,0c9.3,0,12,2.7,12,11.9c0,58.7,0,117.5,0,176.2c0,8.8-3,11.8-11.7,11.9
			c-10.5,0-20.9,0.2-31.4-0.1c-3.7-0.1-5,0.7-4.9,4.7c0.2,18.6,0.2,37.1,0.1,55.7c-0.1,13-7.7,23-19.5,26
			c-16.8,4.3-32.1-8.2-32.2-26.6c-0.1-18.4-0.1-36.8,0.1-55.3c0-3.8-1.1-4.6-4.7-4.5c-9.2,0.3-18.4,0.2-27.6,0
			c-3.2-0.1-3.9,0.9-3.9,4c0.1,19.4,0.3,38.8-0.1,58.2c-0.4,19.7-22,31.4-38.8,21.4c-9.3-5.6-12.8-14.3-12.8-24.7
			c0-18.1-0.1-36.3,0.1-54.4c0-3.5-0.9-4.5-4.4-4.4c-10.5,0.2-20.9,0.1-31.4,0.1c-8.5,0-11.5-3.1-11.5-11.6c0-58.9,0-117.8,0-176.6
			c0-8.9,2.8-11.7,11.8-11.7C170.7,176.7,206,176.7,241.3,176.7z"/>
		<path class="st2" d="M61,255.1c0-17.9-0.3-35.7,0.1-53.6c0.5-19.6,22.3-31.2,39-20.9c9.1,5.6,12.5,14.2,12.5,24.5
			c0,33.4,0.1,66.7,0,100.1c-0.1,14-7.1,23.7-18.8,27c-16.2,4.6-32.4-7-32.8-23.8C60.7,290.5,61,272.8,61,255.1z"/>
		<path class="st2" d="M421.1,254.9c0,17.3,0.1,34.6,0,51.9c-0.2,18.6-16.6,30.4-34.3,24.8c-10.4-3.3-17.2-13.2-17.3-26.4
			c-0.2-33.5-0.2-67,0-100.5c0.1-14.3,7.5-24.2,19.6-27.2c15.9-4,31.6,7.7,31.9,24.2C421.3,219.5,421.1,237.2,421.1,254.9
			C421.1,254.9,421.1,254.9,421.1,254.9z"/>
		<path class="st1" d="M304.4,114.9c0,5.2-4.6,9.8-9.9,9.8c-5.2,0-9.8-4.7-9.8-9.9c0-5.2,4.7-9.8,9.9-9.8
			C299.7,105,304.4,109.8,304.4,114.9z"/>
		<path class="st1" d="M196.7,114.8c0,5.4-4.5,9.9-9.8,9.9c-5.3,0-9.7-4.6-9.7-10c0.1-5.2,4.3-9.6,9.6-9.7
			C192.2,105,196.7,109.4,196.7,114.8z"/>
	</g>
</g>
</svg>
