<?xml version="1.0" encoding="utf-8"?>
<!-- Generator: Adobe Illustrator 25.4.1, SVG Export Plug-In . SVG Version: 6.00 Build 0)  -->
<svg version="1.1" id="Layer_1" xmlns="http://www.w3.org/2000/svg" xmlns:xlink="http://www.w3.org/1999/xlink" x="0px" y="0px"
	 viewBox="0 0 1000 500" style="enable-background:new 0 0 1000 500;" xml:space="preserve">
<style type="text/css">
	.st0{fill:#3F3F3F;}
	.st1{fill:#FEFEFE;}
	.st2{fill:#B1C9EB;}
	.st3{fill:#C5D7F0;}
	.st4{fill:#C3D5F0;}
	.st5{fill:#D8E4F5;}
	.st6{fill:#EDF2FA;}
	.st7{fill:#EEF3FB;}
	.st8{fill:#528ED7;}
	.st9{fill:#0573CD;}
	.st10{fill:#81ADE2;}
	.st11{fill:#FDD05B;}
	.st12{fill:#FC7D44;}
</style>
<g>
	<g>
		<path d="M45.2-86.4l-11.6-40.8H44c2.4,9.4,6.5,24.6,7.4,31.9h0.1c1.3-7.5,5.5-22.4,8.3-31.9h9.4c2.6,9,7.1,25.7,8.2,31.6h0.1
			c1.2-7.4,5.2-22.5,7.5-31.6h10L82.8-86.4H72c-2.6-9-6.8-24.6-8.1-30.4h-0.1c-1.2,6.9-5.1,20.4-8,30.4H45.2z"/>
		<path d="M107.3-99c0.2,3.6,2.9,6.4,7.4,6.4c3.6,0,5.3-1.1,6.4-2.9h9.5c-1.8,5.3-6.3,10-15.9,10c-12.3,0-16.7-8.1-16.7-15.8
			c0-8.4,5.7-15.8,16.6-15.8c11.7,0,16.4,8,16.4,15.8c0,0.8,0,1.3-0.1,2.3H107.3z M121.3-104.8c-0.2-2.3-1.4-5.7-6.8-5.7
			c-5,0-6.8,2.7-7.1,5.7H121.3z"/>
		<path d="M136.9-129.5h9.5v16.4c1.5-1.8,4.3-4,9.9-4c8.1,0,14.6,6.3,14.6,15.2c0,10.3-6.8,16.4-15.2,16.4c-5.7,0-8.3-2.1-9.7-4.2
			c0,0.8-0.1,2.7-0.1,3.4h-9.1c0.1-4.3,0.1-6.7,0.1-10V-129.5z M161.2-101.5c0-4.2-2.2-8.3-7.4-8.3c-5.2,0-7.6,3.4-7.6,8.4
			c0,4.8,2.5,8.4,7.5,8.4C158.7-93,161.2-96.8,161.2-101.5z"/>
		<path d="M194.8-127.2h18.5c13.8,0,21.3,8.9,21.3,19.7c0,13.1-9.6,21.1-21.5,21.1h-18.3V-127.2z M204.7-94h7
			c8,0,12.3-4.5,12.3-13.2c0-7.6-4-12.2-12.2-12.3h-7.2V-94z"/>
		<path d="M249-99c0.2,3.6,2.9,6.4,7.4,6.4c3.6,0,5.3-1.1,6.4-2.9h9.5c-1.8,5.3-6.3,10-15.9,10c-12.3,0-16.7-8.1-16.7-15.8
			c0-8.4,5.7-15.8,16.6-15.8c11.7,0,16.4,8,16.4,15.8c0,0.8,0,1.3-0.1,2.3H249z M263-104.8c-0.2-2.3-1.4-5.7-6.8-5.7
			c-5,0-6.8,2.7-7.1,5.7H263z"/>
		<path d="M284.9-116.3c4.1,11.6,6.7,18.1,7.7,21.8h0.1c1.1-3.7,3.2-9.5,7.6-21.8h9.6l-12.4,30h-10.6l-12.3-30H284.9z"/>
		<path d="M321.9-99c0.2,3.6,2.9,6.4,7.4,6.4c3.6,0,5.3-1.1,6.4-2.9h9.5c-1.8,5.3-6.3,10-15.9,10c-12.3,0-16.7-8.1-16.7-15.8
			c0-8.4,5.7-15.8,16.6-15.8c11.7,0,16.4,8,16.4,15.8c0,0.8,0,1.3-0.1,2.3H321.9z M335.9-104.8c-0.2-2.3-1.4-5.7-6.8-5.7
			c-5,0-6.8,2.7-7.1,5.7H335.9z"/>
		<path d="M351.5-86.4v-43.2h9.5v43.2H351.5z"/>
		<path d="M401.6-101.4c0,9.2-6.4,15.8-17.5,15.8c-11.2,0-16.9-7.5-16.9-15.8c0-8.2,5.9-15.8,17.3-15.8
			C396.2-117.1,401.6-108.8,401.6-101.4z M376.9-101.4c0,4.7,2.6,8.7,7.5,8.7c5.1,0,7.4-3.9,7.4-8.5c0-4.5-2.2-8.8-7.5-8.8
			C379.2-110,376.9-106,376.9-101.4z"/>
		<path d="M417.4-89.3v15.5h-9.5V-109c0-2.4,0-4.9-0.1-7.4h9.3c0.1,0.6,0.2,2.6,0.2,3.9c1.7-2.5,4.7-4.7,10.4-4.7
			c7.7,0,14.1,6.4,14.1,15.2c0,10.4-7.5,16.4-15.3,16.4C421.7-85.5,418.8-87.4,417.4-89.3z M432.2-101.4c0-4.4-2.5-8.4-7.4-8.4
			c-5.5,0-7.6,3.5-7.6,8.5c0,5.1,2.6,8.3,7.5,8.3C429.5-93,432.2-96.4,432.2-101.4z"/>
		<path d="M448.2-108.6c0-2.6,0-5.1-0.1-7.7h9.1c0.2,1.2,0.2,2.5,0.3,3.5c1.6-2.2,4.4-4.4,9.1-4.4c5.3,0,7.9,2.3,9,4.9
			c1.6-2.2,4.3-4.9,10.1-4.9c6.3,0,11.2,3.7,11.2,12.7v18.1h-9.3v-17.9c0-2.6-0.9-5.7-4.8-5.7c-3.4,0-5.5,2.1-5.5,7.1v16.5h-9.4
			v-17.9c0-3-1.1-5.7-4.9-5.7c-3.8,0-5.5,2.8-5.5,7.1v16.5h-9.4V-108.6z"/>
		<path d="M512.6-99c0.2,3.6,2.9,6.4,7.4,6.4c3.6,0,5.3-1.1,6.4-2.9h9.5c-1.8,5.3-6.3,10-15.9,10c-12.3,0-16.7-8.1-16.7-15.8
			c0-8.4,5.7-15.8,16.6-15.8c11.7,0,16.4,8,16.4,15.8c0,0.8,0,1.3-0.1,2.3H512.6z M526.6-104.8c-0.2-2.3-1.4-5.7-6.8-5.7
			c-5,0-6.8,2.7-7.1,5.7H526.6z"/>
		<path d="M542.2-108.8c0-2.5,0-5.4-0.1-7.6h9.3c0.1,0.8,0.2,2.7,0.3,3.9c1.4-2.1,4.1-4.7,9.9-4.7c7.4,0,11.7,4.6,11.7,12.3v18.5
			h-9.6v-17c0-3.4-1.3-6.4-5.6-6.4c-4.4,0-6.5,3.1-6.5,8.5v15h-9.5V-108.8z"/>
		<path d="M578.3-116.3h5.4v-8.8h9.5v8.8h6.9v6.9h-6.9v12.6c0,2.6,0.5,3.7,3.4,3.7c0.8,0,1.7,0,2.6-0.2v6.5c-1.6,0.5-3.8,0.7-6,0.7
			c-7.4,0-9.5-3.2-9.5-9v-14.3h-5.4V-116.3z"/>
	</g>
</g>
<g>
	<g>
		<path class="st0" d="M60.5,212.3H85c18,0,29.8,13.1,29.8,33.3c0,19.9-11.4,35-30.3,35H60.5V212.3z M73.9,268.7h10
			c11.8,0,17.1-9.7,17.1-23c0-11.2-4.9-21.4-17-21.4H73.9V268.7z"/>
		<path class="st0" d="M163.4,267.3c0,4.9,0.4,12,0.6,13.2h-12.3c-0.4-1-0.6-3.7-0.6-5c-1.7,2.9-4.8,6.2-13,6.2
			c-11.2,0-15.9-8.1-15.9-16.1c0-11.7,8.5-17.1,22.1-17.1c2.3,0,5.1,0,6.6,0v-3.1c0-3.6-1.2-7.2-7.1-7.2c-5.4,0-6.6,2.5-7.2,6.3
			h-12.2c0.7-9.1,5.8-16.5,19.9-16.4c12.4,0.1,19.2,5.5,19.2,17.6V267.3z M150.8,257.2c-1.1,0-3.5,0-5.2,0c-7.7,0-10.6,2.6-10.6,7.6
			c0,3.7,2.1,6.8,6.7,6.8c8.2,0,9.2-6.3,9.2-13V257.2z"/>
		<path class="st0" d="M170.5,229.3h7.2v-13.9h12.8v13.9h9.1V240h-9.1v25.3c0,3.9,1.1,5.4,4.9,5.4c0.7,0,2,0,2.9-0.2v9.8
			c-2.5,1-6,1-8.6,1c-9.1,0-12-5.3-12-14.3v-27h-7.2V229.3z"/>
		<path class="st0" d="M246,267.3c0,4.9,0.4,12,0.6,13.2h-12.3c-0.4-1-0.6-3.7-0.6-5c-1.7,2.9-4.8,6.2-13,6.2
			c-11.2,0-15.9-8.1-15.9-16.1c0-11.7,8.5-17.1,22.1-17.1c2.3,0,5.1,0,6.6,0v-3.1c0-3.6-1.2-7.2-7.1-7.2c-5.4,0-6.6,2.5-7.2,6.3
			h-12.2c0.7-9.1,5.8-16.5,19.9-16.4c12.4,0.1,19.2,5.5,19.2,17.6V267.3z M233.5,257.2c-1.1,0-3.5,0-5.2,0c-7.7,0-10.6,2.6-10.6,7.6
			c0,3.7,2.1,6.8,6.7,6.8c8.2,0,9.2-6.3,9.2-13V257.2z"/>
		<path class="st0" d="M257.6,208.3h12.8v26.5c1.9-3.3,5.8-6.6,13.3-6.6c12.6,0,18.9,11.5,18.9,25.9c0,14.7-6.8,27.7-20.2,27.7
			c-6.9,0-9.9-2.3-12.2-6c0,1.7-0.2,3.6-0.5,4.9h-12.3c0.1-5.6,0.1-11.2,0.1-16.8V208.3z M289.6,254.3c0-8.5-2.9-14.8-9.8-14.8
			c-7.3,0-9.9,5.3-9.9,15.7c0,8.6,2.3,15.3,9.8,15.3C286.2,270.5,289.6,264,289.6,254.3z"/>
		<path class="st0" d="M349.9,267.3c0,4.9,0.4,12,0.6,13.2h-12.3c-0.4-1-0.6-3.7-0.6-5c-1.7,2.9-4.8,6.2-13,6.2
			c-11.2,0-15.9-8.1-15.9-16.1c0-11.7,8.5-17.1,22.1-17.1c2.3,0,5.1,0,6.6,0v-3.1c0-3.6-1.2-7.2-7.1-7.2c-5.4,0-6.6,2.5-7.2,6.3
			h-12.2c0.7-9.1,5.8-16.5,19.9-16.4c12.4,0.1,19.2,5.5,19.2,17.6V267.3z M337.4,257.2c-1.1,0-3.5,0-5.2,0c-7.7,0-10.6,2.6-10.6,7.6
			c0,3.7,2.1,6.8,6.7,6.8c8.2,0,9.2-6.3,9.2-13V257.2z"/>
		<path class="st0" d="M371,265.2c1,4.1,4,6.4,8.8,6.4c4.7,0,6.5-1.9,6.5-5c0-3.3-2-4.6-8.6-6.4c-15.1-4.1-17.6-9.3-17.6-16.5
			c0-7.5,4.8-15.5,18.8-15.5c14.1,0,18.8,8.5,19.2,15.4h-12.2c-0.4-1.9-1.6-5.5-7.6-5.5c-4.2,0-5.6,2.1-5.6,4.4c0,2.5,1.4,3.8,9,5.7
			c15.5,4,17.7,9.8,17.7,17.4c0,8.5-5.8,16.2-20,16.2c-14.1,0-19.9-7.5-20.9-16.6H371z"/>
		<path class="st0" d="M418,258c0,6.4,2.9,12.7,9.3,12.7c5.3,0,6.9-2.4,8.1-5.5h12.9c-1.6,6.3-6.7,16.6-21.3,16.6
			c-15.3,0-21.9-12.6-21.9-26.1c0-16.1,7.5-27.6,22.4-27.6c15.9,0,21.4,12.7,21.4,25.5c0,1.7,0,2.9-0.2,4.3H418z M436,249.3
			c-0.1-6-2.2-11-8.5-11c-6.2,0-8.6,4.7-9.1,11H436z"/>
		<path class="st0" d="M467,265.2c1,4.1,4,6.4,8.8,6.4c4.7,0,6.5-1.9,6.5-5c0-3.3-2-4.6-8.6-6.4c-15.1-4.1-17.6-9.3-17.6-16.5
			c0-7.5,4.8-15.5,18.8-15.5c14.1,0,18.8,8.5,19.2,15.4h-12.2c-0.4-1.9-1.6-5.5-7.6-5.5c-4.2,0-5.6,2.1-5.6,4.4c0,2.5,1.4,3.8,9,5.7
			c15.5,4,17.7,9.8,17.7,17.4c0,8.5-5.8,16.2-20,16.2c-14.1,0-19.9-7.5-20.9-16.6H467z"/>
	</g>
</g>
<g>
	<g>
		<path class="st1" d="M788,27.7c64.4,0,128.9,0,193.3-0.1c3,0,3.6,0.6,3.5,3.6c-0.1,145.9-0.1,291.8,0,437.8c0,3-0.6,3.6-3.5,3.5
			c-145.9-0.1-291.8-0.1-437.8,0c-3,0-3.6-0.6-3.5-3.5c0.1-145.9,0.1-291.8,0-437.8c0-3,0.6-3.6,3.5-3.6
			c64.7,0.1,129.4,0.1,194.2,0.1c0.3,0.5,0.2,0.9-0.2,1.2c-6.4,2-13.1,1.7-19.7,2.5c-29.4,3.7-58,10-84.7,23.4
			c-8.3,4.2-15.8,9.5-22.6,15.9c-9.6,9.1-14.3,20-13,33.4c0.3,24.8,0.1,49.6,0.1,74.5c0,3.8,0.5,7.5,1.6,11.1
			c0.6,1.9,1.3,3.8,0.8,5.9c-1.9,5.6-2.9,11.4-2.5,17.3c0.2,26,0.1,51.9,0.1,77.8c0,3.4,0.6,6.6,1.6,9.8c0.6,1.9,1.3,3.8,0.8,5.9
			c-1.8,5.5-3,11.1-2.5,16.9c0,26.4-0.1,52.8,0.1,79.3c0.1,11.2,6.2,19.5,14,26.9c10.3,9.7,22.6,15.9,35.5,21.2
			c22.6,9.3,46.4,14,70.5,17c18.9,2.3,38,3.4,57,2.5c37.1-1.6,73.6-6.5,108.1-21.3c13.8-5.9,26.5-13.4,36.4-25
			c5.5-6.5,8.7-13.9,8.7-22.5c0.1-26,0-52,0-78c0.4-5.8-0.8-11.4-2.5-16.9c-0.3-1.1-0.3-2.3,0.1-3.4c2.7-7.5,2.3-15.3,2.4-23.1
			c0-22.3-0.1-44.7,0.1-67c0.3-5.9-0.7-11.7-2.5-17.4c-0.3-1.3-0.3-2.6,0.1-3.8c2.4-6.6,2.3-13.5,2.3-20.5c0-22.3-0.2-44.6,0.1-66.9
			c2.1-17.7-6.6-30.1-20-40c-13.4-9.9-28.4-16.5-44.2-21.4c-1.3-0.4-2.6-0.3-3.8-0.6c-14.7-5.2-30-7.6-45.4-10.1
			c-8.8-1.4-17.8-1.2-26.4-3.4C787.8,28.6,787.7,28.2,788,27.7z"/>
		<path class="st2" d="M596.5,103.2c-2-17.4,7.1-29.4,19.9-39.1c18.5-14.1,40-21.4,62.1-26.8c16.5-4.1,33.1-6.8,50.1-8
			c3-0.2,6-0.7,9-0.7c1.4-0.8,2.9-0.2,4.3-0.4c1.7,0,3.4,0,5.1,0c2.3-0.2,4.8,0.5,7.1-0.4c6.4,0,12.7,0,19.1,0
			c2.6,0.7,5.2,0.7,7.8,0c0.6,0,1.2,0,1.7,0c1.6,1.1,3.6-0.1,5.2,0.8c23.3,1.5,46.2,5,68.7,11.2c1.6,0.4,2.5,1.9,4.1,2
			c13.5,6.3,23.7,15.9,28.9,30c4.5,12.2,0.5,23-7.3,32.6c-10,12.3-23.4,19.9-37.7,26.1c-24.1,10.4-49.4,15.8-75.3,18.9
			c-19.8,2.4-39.7,3.4-59.6,2.5c-26.1-1.1-52-4.3-77.3-11.2c-9.9-3.8-18-10.2-25.3-17.7C601.7,117.4,597.6,111.1,596.5,103.2z"/>
		<path class="st3" d="M781.1,27.7c-2.6,1.4-5.2,1.4-7.8,0C775.9,27.7,778.5,27.7,781.1,27.7z"/>
		<path class="st4" d="M754.2,27.7c-2.1,1.7-4.6,0.5-7,0.8c-0.3-0.2-0.4-0.4-0.3-0.6c0.1-0.2,0.2-0.3,0.3-0.3
			C749.6,27.7,751.9,27.7,754.2,27.7z"/>
		<path class="st5" d="M747.3,27.7c0,0.3,0,0.6,0,0.8c-1.7,0-3.5,0-5.2,0c-0.3-0.2-0.4-0.4-0.3-0.6c0.1-0.2,0.2-0.3,0.3-0.3
			C743.8,27.7,745.5,27.7,747.3,27.7z"/>
		<path class="st6" d="M788,28.4c-1.8-0.1-3.7,0.8-5.2-0.8c1.7,0,3.5,0,5.2,0C788,27.9,788,28.2,788,28.4z"/>
		<path class="st7" d="M742.1,27.7c0,0.3,0,0.6,0,0.9c-1.4,0-2.9,0-4.3,0c0-0.3,0-0.6,0-0.8C739.2,27.7,740.6,27.7,742.1,27.7z"/>
		<path class="st8" d="M599.1,306.8c-0.1-1,0.6-1.9,0.1-2.9c-3.4-7-2.8-14.6-2.8-22c0-23.2,0.1-46.4,0.1-69.5
			c1.6,0.1,1.7,1.4,1.9,2.5c2.9,11.3,10.6,19,19.5,25.7c16.4,12.4,35.4,19.3,55,24.6c22.4,6,45.2,9.2,68.3,10.4
			c10.8,0.6,21.6,1,32.4,0.6c37.7-1.4,74.7-6.5,109.7-21.5c13.5-5.8,25.9-13.4,35.7-24.6c3.7-4.2,6.2-9,7.9-14.3
			c0.4-1.3,0.2-3,2.2-3.3c0,26.8,0.1,53.6,0.1,80.3c0,3.3-0.8,6.6-2.1,9.6c-0.6,1.5-0.9,3-0.5,4.5c-10.1,15.9-25.1,25.6-41.9,32.9
			c-24.6,10.7-50.5,16.3-77,19.4c-19.2,2.3-38.6,3.3-57.9,2.5c-38-1.7-75.3-6.9-110.4-22.7c-13.2-5.9-25.2-13.4-34.8-24.4
			C602.5,312.1,601,309.3,599.1,306.8z"/>
		<path class="st8" d="M929.2,323.2c0,26.9,0.3,53.7,0,80.6c-0.1,10.9-6.4,19.3-14.1,26.4c-15.7,14.4-34.9,22.2-55,28.2
			c-24.8,7.5-50.3,11.1-76.2,12.5c-37.9,2-75.2-0.9-111.9-10.7c-19.9-5.3-39-12.5-55.6-25.2c-9.3-7.1-17.1-15.6-19.4-27.7
			c-0.2-1.1-0.4-2.3-0.4-3.4c0-26.9,0-53.7,0.1-80.6c1.6,0.1,1.7,1.4,1.9,2.5c2.9,11.3,10.6,19,19.5,25.7
			c16.4,12.4,35.4,19.3,55,24.6c22.4,6,45.2,9.2,68.3,10.4c10.8,0.6,21.6,1,32.4,0.6c37.7-1.4,74.7-6.5,109.7-21.5
			c13.5-5.8,25.9-13.4,35.7-24.6c3.7-4.2,6.2-9,7.9-14.3C927.4,325.3,927.2,323.5,929.2,323.2z"/>
		<path class="st8" d="M596.5,103.2c6.1,17.7,19.4,28.3,35.4,36.3c18.6,8.1,37.6,14.8,57.5,18.7c15.2,3,30.5,4.9,45.9,6.1
			c14.2,1.1,28.3,1.1,42.4,0.6c34.8-1.2,69-6.4,101.5-19.6c11-4.5,21.5-9.9,30.8-17.4c7.5-6,13.6-12.9,16.8-22.1
			c0.4-1.1,0.4-2.7,2.2-2.8c0,26.1,0.1,52.3,0.1,78.4c0,3.3-0.8,6.6-2.1,9.7c-0.6,1.5-0.9,3-0.5,4.6c-10.1,15.9-25.1,25.6-41.9,32.9
			c-24.6,10.7-50.5,16.3-77,19.4c-19.2,2.3-38.6,3.3-57.9,2.5c-38-1.7-75.3-6.9-110.4-22.7c-13.2-5.9-25.2-13.4-34.8-24.4
			c-2.1-2.4-3.6-5.2-5.5-7.7c0-1.1,0.6-2.2,0-3.4c-2.7-5.6-2.7-11.7-2.7-17.8C596.5,150.9,596.5,127,596.5,103.2z"/>
		<path class="st9" d="M599.1,195.8c0.9-0.5,1.4-0.3,2,0.7c9.1,14.8,23.3,23.3,38.5,30.3c20.3,9.4,41.8,14.8,63.7,18.2
			c12.6,2,25.4,3.2,38.2,3.9c10.8,0.6,21.6,0.9,32.4,0.5c38-1.3,75.4-6.6,110.7-21.9c16-7,30.8-16,40.3-31.4
			c0.6-0.9,1.1-0.6,1.8-0.3c2.5,5.2,3,10.8,2.5,16.4c-3.7,16.8-15.6,26.8-29.3,35c-23,13.8-48.4,20.5-74.5,24.9
			c-13.8,2.3-27.6,3.6-41.5,4.5c-25.8,1.6-51.4,0.2-77-3.5c-20.6-3-40.6-7.8-60-15.5c-13.5-5.4-26.1-12.2-36.8-22.2
			c-6.7-6.3-11.5-13.9-13.4-23.1C596.1,206.6,596.6,201.1,599.1,195.8z"/>
		<path class="st9" d="M929.2,323.2c-3.7,16.8-15.6,26.8-29.3,35c-23,13.8-48.4,20.5-74.5,24.9c-13.8,2.3-27.6,3.6-41.5,4.5
			c-25.8,1.6-51.4,0.2-77-3.5c-20.6-3-40.6-7.8-60-15.5c-13.5-5.4-26.1-12.2-36.8-22.2c-6.7-6.3-11.5-13.9-13.4-23.1
			c-0.4-5.7,0.1-11.2,2.5-16.4c0.9-0.5,1.4-0.3,2,0.7c9.1,14.8,23.3,23.3,38.5,30.3c20.3,9.4,41.8,14.8,63.7,18.2
			c12.6,2,25.4,3.2,38.2,3.9c10.8,0.6,21.6,0.9,32.4,0.5c38-1.3,75.4-6.6,110.7-21.9c16-7,30.8-16,40.3-31.4
			c0.6-0.9,1.1-0.6,1.8-0.3C929.1,312,929.6,317.6,929.2,323.2z"/>
		<path class="st10" d="M929.2,103.2c-4.9,17.3-18,27.2-32.7,35.4c-21.5,12-44.9,18.3-68.9,22.6c-12.9,2.3-25.8,3.4-38.9,4.5
			c-15.3,1.2-30.6,1.2-45.8,0.5c-29-1.3-57.7-5.8-85.3-15.2c-8.8-3-17.6-6.3-25.6-11.4c10.4,2,20.7,4.9,31.2,6.4
			c11.9,1.7,23.9,3.2,35.9,4c11.7,0.8,23.3,1.1,35,0.7c29.6-1,58.9-4.5,87.5-13.2c17.5-5.3,34.3-12,48.9-23.2
			c6.7-5.2,12.7-11.1,16.5-19c5.9-12.2,3.5-26.3-5.6-36.5c-6-6.7-13.2-11.9-20.3-17.1c3.6-0.4,6.7,1.4,9.9,2.6
			c15.3,5.4,29.8,12.2,42.2,22.9C924.2,76.6,930.9,87.9,929.2,103.2z"/>
		<path class="st9" d="M624.4,281.6c1.4-0.2,3,0.7,4.5,1.6c21.6,12.7,45.4,19.3,69.9,23.7c3.2,0.6,6.5,1.1,9.7,1.7
			c3.8,0.8,5.7,3.8,5,7.8c-0.5,2.9-3.9,5.6-7.1,5.1c-22.8-3.6-45.1-8.8-66.4-18c-6.6-2.9-13-6.2-19.1-10c-3.1-1.9-3.5-4.8-2.5-8
			C619.2,282.8,621.3,281.7,624.4,281.6z"/>
		<path class="st11" d="M887.7,297.5c-3.7,0-6.3-2.5-6.4-6.2c-0.1-3.9,2.6-6.6,6.5-6.5c3.7,0.1,6.2,2.6,6.2,6.4
			C894,295,891.5,297.5,887.7,297.5z"/>
		<path class="st12" d="M852.4,305.1c0,3.7-2.5,6.2-6.1,6.3c-3.9,0.1-6.5-2.5-6.5-6.3c0-3.8,2.7-6.4,6.5-6.3
			C850,298.8,852.4,301.4,852.4,305.1z"/>
		<path class="st9" d="M713.5,426c0,3.9-3.5,7-7.5,6.4c-24.9-4-49.3-10-72.3-20.8c-4-1.9-7.9-4.2-11.6-6.6c-4.1-2.6-5.2-6.3-3.2-9.7
			c1.9-3.1,5.7-3.7,9.9-1.1c10.8,6.4,22.3,11.2,34.3,15.1c14.5,4.6,29.4,7.8,44.4,10.3C712,420.2,713.5,422,713.5,426z"/>
		<path class="st12" d="M894,402.1c0,3.7-2.5,6.2-6.1,6.3c-3.9,0.1-6.5-2.5-6.5-6.3c0-3.8,2.7-6.4,6.5-6.3
			C891.6,395.9,894,398.4,894,402.1z"/>
		<path class="st11" d="M845.9,409.7c3.7-0.1,6.4,2.4,6.5,6c0.1,3.9-2.5,6.6-6.4,6.6c-3.7,0-6.2-2.5-6.3-6.3
			C839.7,412.3,842.2,409.8,845.9,409.7z"/>
		<path class="st9" d="M713.5,204.1c-0.1,3.9-3.6,6.9-7.6,6.3c-24.8-4-49-9.9-71.9-20.6c-4.3-2-8.4-4.5-12.4-7
			c-3.8-2.3-4.7-6.3-2.7-9.5c1.8-2.9,5.5-3.7,9.2-1.4c18.1,10.9,38,17,58.4,21.7c7.1,1.6,14.4,2.7,21.6,4
			C711.9,198.2,713.6,200.4,713.5,204.1z"/>
		<path class="st12" d="M887.8,186.5c-3.8,0-6.5-2.6-6.4-6.5c0.1-3.7,2.6-6.1,6.2-6.2c3.8,0,6.5,2.6,6.4,6.5
			C893.9,184,891.4,186.5,887.8,186.5z"/>
		<path class="st11" d="M845.9,187.8c3.7-0.1,6.4,2.4,6.5,6c0.1,3.9-2.5,6.6-6.4,6.6c-3.7,0-6.2-2.5-6.3-6.3
			C839.7,190.4,842.2,187.8,845.9,187.8z"/>
	</g>
</g>
</svg>
